<svg xmlns="http://www.w3.org/2000/svg" width="100%" height="100%" viewBox="0 0 36.683 36.356">
    <defs>
        <clipPath id="checkmark-clip">
            <path d="M59.422 134.928c-.704-1.938-2.361-5.431-3.429-7.227-1.419-2.388-4.988-7.243-6.835-9.296-1.622-1.804-1.56-2.276.182-1.376.75.389.805.389.656 0-.215-.56.274-.54 1.448.058.914.466.94.466.819 0-.159-.606.392-.629 1.04-.042.62.56.967.237.517-.483-.237-.379-.257-.633-.067-.823.364-.364.717-.055 2.026 1.772 1.001 1.397 1.447 1.774 1.447 1.225 0-.138-.6-.971-1.333-1.852-1.074-1.29-1.234-1.601-.826-1.601.322 0 1.053.725 2 1.984.822 1.092 1.565 1.985 1.653 1.985.087 0 .008-.182-.176-.403-.28-.337-.264-.376.096-.238.237.091 1.17 1.277 2.074 2.636 1.601 2.409 2.068 2.782 2.068 1.653 0-.305.551-1.935 1.225-3.623 2.129-5.333 5.729-12.13 8.77-16.562 1.917-2.791 2.13-3.015 2.421-2.544.183.296.395.24 1.115-.292 1.186-.878 1.68-1.025 2.184-.651.371.275.26.556-.94 2.367-.748 1.13-1.301 2.114-1.23 2.186.071.071.752-.586 1.513-1.46 1.217-1.4 2.132-1.993 2.144-1.392.002.11.108.363.235.563.178.281.46.111 1.232-.745.816-.902 1.044-1.033 1.229-.704.174.312.379.346.897.149 1.481-.563 1.461-.229-.091 1.53-3.886 4.406-8.693 12.578-12.979 22.067-1.249 2.765-2.698 7.444-2.698 8.712 0 .387-.744.716-3.807 1.686-2.093.662-3.942 1.204-4.109 1.204-.167 0-.378-.208-.471-.463z" transform="translate(-47.986 -99.035)"/>
        </clipPath>
    </defs>
</svg>