<svg xmlns="http://www.w3.org/2000/svg" xmlns:xlink="http://www.w3.org/1999/xlink" aria-hidden="true" style="position: absolute; width: 0; height: 0; overflow: hidden;">
    <defs>
        <symbol id="artificer" width="100%" height="100%" viewBox="0 0 67.733 67.733"><path d="M30.668 67.46c-1.362-.293-1.423-.43-2.416-5.376-.434-2.168-.653-2.532-1.665-2.774-.641-.152-2.413-.837-3.937-1.518l-2.774-1.238-3.134 1.95c-1.726 1.074-3.337 1.952-3.584 1.952-.584 0-5.068-4.3-5.663-5.429-.378-.718-.099-1.417 1.64-4.085l2.098-3.217-.904-1.772a36.043 35.98 0 0 1-1.644-3.933l-.736-2.166-3.6-.72c-1.983-.393-3.773-.984-3.98-1.312-.467-.737-.502-7.346-.041-8.068.184-.29 1.972-.877 3.976-1.303l3.64-.775.74-2.176c.407-1.198 1.145-2.971 1.643-3.945l.904-1.768L9.11 16.6c-1.517-2.276-2.017-3.38-1.754-3.873.8-1.493 5.706-5.753 6.344-5.51.357.138 1.808 1.035 3.227 1.997 1.417.96 2.765 1.746 2.997 1.746.23 0 1.66-.586 3.177-1.301 1.516-.717 3.105-1.303 3.531-1.303.929 0 1.092-.383 2-4.695l.706-3.338 2.283-.23c1.256-.124 3.304-.124 4.549 0l2.268.23.697 3.495c.844 4.218.92 4.354 2.629 4.695.745.148 2.33.76 3.524 1.359s2.36 1.088 2.594 1.088c.232 0 1.582-.786 3-1.746 1.417-.962 2.869-1.86 3.226-1.997.637-.243 5.543 4.019 6.345 5.51.263.492-.238 1.597-1.754 3.873l-2.122 3.187.904 1.768c.496.974 1.236 2.747 1.644 3.945l.74 2.176 3.632.773c2 .427 3.743.881 3.875 1.013.426.423.503 7.745.089 8.36-.22.328-2.02.92-4.001 1.313l-3.6.719-.739 2.166c-.406 1.19-1.14 2.953-1.634 3.922l-.897 1.755 2.115 3.31 2.116 3.312-1.303 1.657c-2.63 3.344-5.51 5.254-6.214 4.119-.122-.197-1.383-1.075-2.801-1.95l-2.581-1.588-2.769 1.237c-1.522.681-3.292 1.362-3.933 1.516-1.013.242-1.232.606-1.666 2.774-.99 4.945-1.052 5.083-2.416 5.375-.702.151-2.157.274-3.233.274-1.077 0-2.532-.123-3.236-.274zm10.27-13.027c8.86-3.071 14.734-11.324 14.7-20.662-.02-6.044-2.016-10.913-6.226-15.18-8.647-8.763-22.372-8.763-31.018 0-4.209 4.267-6.206 9.136-6.227 15.18-.036 10.492 7.062 19.154 17.606 21.486 2.59.575 8.363.148 11.165-.824zM28.025 51.86c-6.439-2.222-11.392-7.62-12.773-13.912-.394-1.808-.373-1.876.53-1.635.517.138 1.186.255 1.484.258.3.003.546.348.55.766.006 1.07 1.917 5.046 3.288 6.843 1.496 1.956 5.618 4.692 8.13 5.394 1.68.47 2.002.738 2.16 1.81.22 1.503-.216 1.564-3.369.476zm8.384-.442c.164-1.11.468-1.37 2.165-1.844 2.51-.702 6.633-3.438 8.127-5.395 1.373-1.796 3.284-5.772 3.291-6.843 0-.417.281-.758.621-.758.339 0 .955-.132 1.371-.29.664-.255.725-.07.51 1.547-.65 4.824-5.01 10.397-10.04 12.832-1.714.83-3.816 1.63-4.674 1.777-1.532.263-1.559.243-1.371-1.026zm-3.93-6.87c-1.511-7.276-1.67-7.442-8.703-9.039-2.923-.664-5.59-1.357-5.93-1.539-.38-.203 1.376-.79 4.567-1.52 8.804-2.023 8.59-1.814 10.2-9.875.56-2.806 1.141-5.101 1.29-5.101.148 0 .729 2.295 1.29 5.101 1.61 8.06 1.397 7.852 10.201 9.874 3.19.732 4.946 1.318 4.567 1.521-.34.182-3.008.875-5.931 1.54-7.033 1.596-7.192 1.762-8.701 9.038-.628 3.02-1.27 5.489-1.425 5.489-.158 0-.8-2.47-1.426-5.49zm-4.697.289c-2.468-1.303-6.272-6.02-5.486-6.804.54-.54 2.865.525 3.502 1.603.582.98 1.966 2.21 3.642 3.236.334.204.592 2.82.277 2.803-.21-.01-1.08-.387-1.935-.838zm10.202-.514c.15-.755.713-1.677 1.249-2.051 1.257-.87 2.676-2.281 3.186-3.16.539-.933 3.227-1.525 3.227-.713 0 1.428-3.408 5.263-5.746 6.465-2.13 1.097-2.239 1.067-1.916-.541zM15.418 29.197c1.754-6.642 6.372-11.486 12.872-13.506 3.375-1.05 3.322-1.057 3.098.46-.16 1.105-.498 1.386-2.424 2.02-2.989.987-4.9 2.24-7.16 4.692-1.857 2.012-3.98 5.88-3.989 7.258-.002.39-.444.827-.983.972-1.943.52-2.024.41-1.414-1.896zm35.338 1.871c-.417-.11-.762-.527-.764-.927-.008-1.465-2.18-5.333-4.205-7.496-2.05-2.186-4.484-3.692-7.596-4.696-1.274-.412-1.623-.768-1.776-1.815-.185-1.256-.143-1.293 1.15-1.014 4.392.943 8.881 3.646 11.273 6.785 1.642 2.155 3.261 5.604 3.587 7.644.304 1.89.18 2.001-1.669 1.517zM22.16 29.45c0-.751 1.792-3.633 2.896-4.66 1.335-1.242 4.044-2.97 4.66-2.974.21 0 .267.575.126 1.277-.323 1.608-4.84 6.068-6.485 6.403-.658.133-1.197.112-1.197-.046zm21.497-.082c-1.309-.542-5.461-5.128-5.695-6.285-.253-1.267-.235-1.281.993-.815 2.002.76 4.077 2.546 5.433 4.681.69 1.09 1.258 2.14 1.258 2.33 0 .368-1.19.419-1.99.087z"/></symbol>
        <symbol id="barbarian" width="100%" height="100%" viewBox="0 0 67.733 67.733"><path d="M32.4 66.477c-.661-.692-1.533-1.257-1.937-1.257-1.257 0-1.34-.858-.201-2.047 1.068-1.115 1.092-1.263 1.092-6.888 0-4.724-.11-5.793-.628-5.99-.887-.34-.78-1.112.237-1.746.828-.518.861-.86.768-7.948l-.097-7.407-1.187-1.04c-.91-.8-1.187-1.41-1.187-2.624 0-1.956-.688-2.042-1.466-.18-.443 1.057-1.044 1.576-2.469 2.12l-1.885.719-1.975 5.104c-1.088 2.807-2.028 5.17-2.09 5.252-.297.388-5.47-4.072-7.152-6.166-3.455-4.3-5.995-10.785-5.995-15.304V19.27l2.511-.533c1.382-.293 2.514-.696 2.514-.894 0-.2-.143-.37-.315-.38-.173-.013-1.23-.84-2.349-1.844-2.026-1.817-2.034-1.83-1.529-3.359.788-2.386 4.422-7.526 6.61-9.348 2.212-1.842 4.555-3.16 5.058-2.849.184.113.686 2.128 1.118 4.477l.783 4.27 3.419 2.206c3.145 2.03 3.44 2.338 3.685 3.87.145.917.549 1.774.897 1.907.505.195.633-.152.654-1.733.02-1.852.164-2.103 2.279-3.982l2.255-2.007 2.294 2.007c2.171 1.9 2.295 2.113 2.327 4.046.03 1.749.123 1.967.652 1.529.338-.282.74-1.172.89-1.979.24-1.27.718-1.749 3.575-3.561 3.575-2.27 3.391-1.963 4.533-7.63.367-1.826.867-3.386 1.112-3.467.86-.288 5.713 3.38 7.519 5.68 1.69 2.155 4.382 7.01 4.355 7.857-.006.203-1.032 1.216-2.279 2.253-1.246 1.036-2.277 2-2.29 2.141-.016.143 1.105.497 2.486.79l2.514.533v1.949c0 6.496-4.631 15.049-10.564 19.507l-2.576 1.938-2.079-5.24-2.076-5.24-2.216-.899c-1.782-.723-2.243-1.112-2.346-1.98-.224-1.879-1.176-1.632-1.176.304 0 1.483-.179 1.831-1.253 2.444l-1.254.712-.004 7.64c-.005 7.186.047 7.67.834 8.163.992.618 1.085 1.392.209 1.728-.515.2-.627 1.261-.627 5.935 0 5.428.047 5.762 1.044 7.066 1.07 1.404 1.017 1.924-.199 1.924-.38 0-1.231.566-1.893 1.257-.662.69-1.322 1.255-1.466 1.255-.144 0-.804-.565-1.465-1.255zm-6.294-40.49c1.46-.697 1.48-.738 1.48-3.333v-2.627l-1.818-1.065c-.998-.586-1.927-1.064-2.062-1.064-.136 0 .236 1.116.823 2.479l1.07 2.48-1.071 1.918c-1.203 2.153-.896 2.39 1.578 1.211zm17.188-.962c-1.307-2.07-1.307-2.466 0-5.047.58-1.144.934-2.08.79-2.08-.145 0-1.193.507-2.328 1.124l-2.064 1.124.122 2.537c.119 2.44.18 2.567 1.589 3.254.806.393 1.798.723 2.203.734.65.02.613-.178-.313-1.646zm-29.172 32.68c-2.222-2.66-3.985-4.897-3.919-4.97.067-.07 1.22.158 2.557.506 1.34.352 2.51.562 2.602.472.09-.092-.705-2.469-1.77-5.282-1.063-2.812-1.87-5.177-1.793-5.254.221-.222 12.016 14.814 12.016 15.32 0 .257-.411.365-.941.243-.518-.117-1.735-.381-2.704-.587l-1.761-.374-.124 2.382-.123 2.384zm35.24 2.553v-2.472l-2.619.549c-1.44.3-2.735.42-2.879.263-.251-.277 11.78-15.711 12.042-15.448.071.07-.74 2.43-1.803 5.245-1.062 2.814-1.848 5.2-1.749 5.3.102.1 1.28-.102 2.618-.452 1.34-.35 2.484-.578 2.54-.506.06.07-1.752 2.348-4.023 5.061l-4.128 4.935z"/></symbol>
        <symbol id="bard" width="100%" height="100%" viewBox="0 0 67.733 67.733"><path d="M14.244 63.581c-5.707-2.347-9.64-5.695-11.835-10.078C.336 49.366-.464 43.741.264 38.423c.774-5.654 1.135-5.904 1.164-.806.03 5.56.658 8.396 2.956 13.36 2.03 4.385 6.281 9.143 10.497 11.748 3.716 2.295 3.516 2.564-.637.856zm12.967.408c-8.417-1.832-15.743-7.706-19.887-15.941C4.9 43.227 4.158 39.862 4.15 33.62c-.007-5.091.096-5.74 1.64-10.194.908-2.617 1.795-5.124 1.972-5.57.308-.773.234-.775-1.565-.056-1.038.415-1.987.654-2.112.531-.123-.125.031-.783.34-1.464.374-.819 1.37-1.594 2.934-2.288 2.052-.908 2.412-1.259 2.665-2.615.384-2.045-.783-4.34-2.543-5.004-1.137-.428-1.32-.736-1.32-2.21V3.036l2.152.01c4.502.02 7.777 2.732 8.164 6.758l.205 2.123 3.687-.654c4.896-.865 20.94-.968 26.115-.164 2.12.328 4.057.59 4.305.582.25-.009.586-1.058.749-2.333.469-3.693 3.75-6.291 7.975-6.312l1.924-.01v1.812c0 1.258-.195 1.812-.638 1.812-1.005 0-2.987 2.66-2.98 4 .014 2.517.47 3.185 2.682 3.918 1.678.558 2.301 1.053 2.897 2.302.416.875.759 1.67.759 1.765 0 .096-.819-.145-1.819-.538-.998-.393-1.914-.616-2.034-.496-.12.12.47 2.264 1.312 4.764 2.205 6.547 2.712 10.073 2.099 14.561-1.108 8.086-3.887 13.953-9.06 19.12-7.172 7.163-17.398 10.12-27.443 7.932zm5.68-15.435c0-6.678-.445-8.302-2.9-10.595l-1.177-1.099v17.318l1.473.183c.81.1 1.728.214 2.037.256.43.054.567-1.418.567-6.063zm5.778 5.434c.697-.217.832-16.97.137-16.97-.616 0-2.592 2.7-3.408 4.654-.498 1.192-.693 3.267-.693 7.359v5.699l1.699-.283c.935-.154 1.952-.361 2.265-.459zm-11.667-9.636v-8.978l-1.601-.764c-3.026-1.444-2.93-1.71-2.93 8.095v8.857l1.925.873c1.06.481 2.079.878 2.265.885.189.005.341-4.03.341-8.968zm16.495 8.13 1.769-.782.042-8.927c.048-9.766.15-9.456-2.688-8.271l-1.572.658v9.084c0 4.997.154 9.07.339 9.052.188-.019 1.137-.385 2.11-.815zM20.659 32.08V14.007l-2.368.526c-2.27.505-2.401.616-3.18 2.714-1.19 3.206-2.528 8.651-3.057 12.443-.916 6.559 1.392 13.751 5.841 18.2 1.247 1.248 2.38 2.267 2.516 2.267.137 0 .248-8.134.248-18.075zm29.338 15.66c6.706-7.09 7.604-15.036 3.24-28.678-1.24-3.88-1.41-4.152-2.735-4.418a15.637 15.637 0 0 0-2.488-.282h-1.077v17.897c0 9.843.175 17.897.389 17.897.212 0 1.414-1.088 2.671-2.415zM25.755 31.737l1.247-.634V13.457l-1.247.007a10.806 10.806 0 0 0-2.265.28c-1.016.273-1.02.304-1.02 9.766v9.492l1.02-.315c.562-.171 1.58-.6 2.265-.947zm19.72-8.408.121-9.31-1.027-.273a10.845 10.845 0 0 0-2.276-.283l-1.245-.007v18.024l1.699.704c.935.387 1.902.647 2.152.577.278-.077.5-3.721.576-9.436zM31.61 26.62c1.235-1.94 1.281-2.224 1.281-7.816v-5.801h-4.075v8.439c0 9.406.046 9.495 2.794 5.178zm7.424-13.035c-.137-.355-1.022-.582-2.278-.582h-2.051v5.226c0 5.876.505 7.663 2.855 10.092l1.448 1.498.125-7.826c.069-4.303.024-8.088-.099-8.408zm14.344 48.857c4.485-3.028 7.658-6.602 9.908-11.152 2.146-4.341 3.098-8.544 3.182-14.046l.061-4.079.605 2.946c1.217 5.935.54 12.951-1.672 17.345-2.3 4.564-6.884 8.467-11.87 10.106-1.292.424-2.655.878-3.03 1.006-.373.129.892-.827 2.816-2.125z"/></symbol>
        <symbol id="cleric" width="100%" height="100%" viewBox="0 0 67.733 67.733"><path d="M33.62 67.13c-.162-3.858-1.957-8.126-4.528-10.766-.877-.9-1.594-1.737-1.594-1.856 0-.123 1.139.018 2.534.31 1.395.292 3.08.531 3.75.531.67 0 2.359-.239 3.754-.532 1.395-.29 2.534-.456 2.534-.364 0 .09-.566.73-1.257 1.42-2.554 2.555-4.189 6.052-4.786 10.241-.255 1.779-.364 2.053-.407 1.015zM9.45 59.82a1685.394 1685.394 0 0 1 6.159-9.422l5.79-8.823h4.88l-.025 2.334-.026 2.33-7.312 6.086c-9.296 7.732-9.913 8.221-9.467 7.496Zm40.252-6.583-8.375-6.997-.02-2.331-.02-2.334h4.817l2.192 3.347c8.002 12.218 10.003 15.312 9.899 15.312-.065 0-3.887-3.15-8.493-6.997zm-20.077-2.214c-1.059-.204-1.103-.438-.29-1.514.451-.598.595-2.045.595-6.004V38.29l-5.78.127c-3.179.069-6.077.273-6.44.45-.563.276-.701-.064-.944-2.324-.156-1.456-.154-3.671 0-4.925.264-2.105.353-2.254 1.149-1.96.473.174 3.325.327 6.337.338l5.475.021.114-4.965c.088-3.803-.03-5.241-.496-6.147-.8-1.546-.482-1.665 4.438-1.665 4.902 0 5.237.122 4.452 1.642-.434.84-.598 2.557-.598 6.27v5.11l5.577-.148c3.066-.081 5.96-.288 6.43-.46.795-.288.869-.14 1.077 2.155.123 1.357.123 3.572 0 4.921-.187 2.078-.322 2.406-.874 2.134-.357-.176-3.251-.378-6.43-.447l-5.78-.127v5.11c0 3.69.164 5.43.592 6.258l.593 1.147-1.506.248c-1.637.27-6.227.253-7.69-.029zM11.72 38.986c-1.929-1.993-4.817-3.425-8.648-4.292-2.816-.635-3.092-.764-1.708-.793 3.666-.077 7.45-1.73 10.62-4.639l1.724-1.582-.305 1.37c-.399 1.79-.392 8.762.008 10.192.414 1.48-.074 1.406-1.688-.26zm42.455.055c.405-1.812.371-8.307-.052-10.038l-.348-1.42 1.564 1.457c.86.803 2.118 1.836 2.797 2.3 1.72 1.175 5.91 2.523 7.981 2.569 1.595.035 1.51.082-1.045.59-3.491.694-7.293 2.483-9.336 4.392-.863.808-1.635 1.469-1.713 1.469-.078 0-.009-.594.154-1.319zM15.494 19.368a1501.371 1501.371 0 0 0-7.224-8.582l-.852-.976 1.65.976c.907.537 5.144 3.26 9.414 6.048l7.765 5.07.015 2.534.018 2.535h-4.413l-6.373-7.603zm25.8 5.07.009-2.534 8.986-5.882c4.943-3.235 9.168-5.952 9.385-6.037.22-.086-2.845 3.7-6.81 8.416l-7.206 8.572h-4.37zm-12.18-12.341c2.224-2.499 3.614-5.514 4.237-9.187L33.843 0l.277 2.623c.348 3.287 2.073 7.052 4.375 9.55l1.74 1.89-1.603-.338c-2.058-.435-7.63-.437-9.675-.006l-1.582.334z" /></symbol>
        <symbol id="druid" width="100%" height="100%" viewBox="0 0 67.733 67.733"><path d="M29.5 60.51c-.485-3.972-.983-7.892-1.108-8.71-.166-1.092-.96-2.332-3.007-4.682-1.955-2.248-2.67-3.345-2.408-3.691.208-.271 4.072-5.093 8.591-10.715l8.216-10.222-3.786-3.315c-2.082-1.822-4.028-3.313-4.324-3.313-.297 0-1.644 1.053-2.993 2.34l-2.453 2.341 1.092 1.144c1.33 1.387 1.418 1.392 3.239.153l1.455-.987.913.858c.503.473.914 1.038.914 1.261 0 .787-3.796 6.227-4.507 6.46-.49.16-1.526-.385-3.21-1.69-8.878-6.881-8.126-6.132-7.918-7.898.402-3.395.519-3.547 6.677-8.573 3.284-2.682 6.172-5.032 6.417-5.223.29-.227 3.018 1.587 7.765 5.161l7.316 5.514.112 4.547.111 4.55-4.093 4.614a20858.066 20858.066 0 0 1-8.195 9.234l-4.104 4.62 2.04 2.594 2.037 2.594-.897 8.76-.898 8.761-1.057.37-1.054.366zM18.37 65.601c-4.239-.512-7.907-.996-8.153-1.077-.245-.083 1.744-.387 4.421-.678 2.679-.288 4.868-.635 4.868-.767 0-.134-.88-.647-1.956-1.14C8.621 57.845 2.77 47.664 4.28 38.85c.667-3.89 3.54-9.441 6.556-12.666 1.338-1.43 2.789-2.79 3.224-3.024.782-.417.782-.41-.014.719-3.482 4.94-5.35 12.828-4.465 18.873.545 3.726 1.167 4.522 1.174 1.502.005-2.518.736-5.448 1.952-7.828.933-1.826 3.685-5.03 4.856-5.658.578-.309.538-.09-.236 1.32-2.059 3.743-2.11 8.488-.134 12.38 1.188 2.34 4.091 4.99 6.824 6.23l2.465 1.116.74 6.112c.406 3.36.832 6.693.945 7.405.248 1.573.852 1.556-9.796.271zm16.266.724c0-.164.37-3.792.823-8.061.745-7.028.906-7.82 1.688-8.362 2.29-1.58 3.965-3.502 5.15-5.907 1.131-2.297 1.297-3.038 1.297-5.763v-3.13l.683 1.527c1.055 2.364 1.584 5.48 1.44 8.487-.124 2.578-.09 2.705.557 2.118.377-.343 1.068-1.632 1.53-2.86 1.17-3.1.942-7.942-.542-11.57l-1.05-2.565 1.378-1.681c.759-.926 1.379-1.877 1.379-2.113 0-1.101.905-.144 2.994 3.163 2.841 4.504 3.79 6.982 4.066 10.618.28 3.67-.399 7.148-2.081 10.672-1.54 3.226-5.517 8.068-8.492 10.336-1.133.865-2.061 1.693-2.061 1.84 0 .15 2.061.5 4.58.78 2.52.281 4.524.569 4.455.638-.128.128-16.359 2.126-17.296 2.13-.274 0-.498-.132-.498-.297zM57.19 53.548c3.294-6.931 3.377-15.883.212-22.862-1.417-3.127-2.881-5.318-5.488-8.217l-1.921-2.14 1.38.71c3.987 2.053 8.056 6.068 9.98 9.848 3.819 7.512 2.926 15.796-2.428 22.506-2.592 3.25-3.232 3.306-1.735.155zM24.338 7.158c-1.3-1.384-1.771-3.486-1.231-5.492L23.557 0l.706 1.577c.651 1.455 2.467 3.36 3.69 3.872.344.143.058.617-.866 1.43-.758.67-1.488 1.22-1.622 1.22-.136 0-.641-.425-1.127-.94z" /></symbol>
        <symbol id="fighter" width="100%" height="100%" viewBox="0 0 67.733 67.733"><path d="M29.567 65.381c-3.22-.473-7.627-1.95-10.092-3.38l-1.94-1.128 2.654-2.654 2.655-2.655 3.279 1.216c2.767 1.026 3.974 1.216 7.717 1.216 3.743 0 4.95-.19 7.718-1.216l3.28-1.216 2.653 2.655 2.655 2.654L48.206 62c-2.598 1.51-6.792 2.871-10.468 3.405-3.432.494-4.664.49-8.17-.024zM7.884 61.574c0-.112.51-2.039 1.133-4.283l1.136-4.08L28.197 35.14c17.116-17.144 17.996-18.105 17.166-18.724-.73-.545-4.3-1.986-6.839-2.759-.42-.129 1.021-1.861 4.208-5.058 2.666-2.674 5.027-4.863 5.249-4.863.228 0 .286 1.13.134 2.58l-.268 2.577 2.512 1.653 2.51 1.654 4.293-4.276c4.807-4.788 4.788-4.785 7.495-1.7l1.432 1.63-4.362 4.378c-3.807 3.823-4.293 4.477-3.817 5.153.3.425.996 1.52 1.548 2.432.973 1.61 1.083 1.662 3.555 1.665 1.402.002 2.55.156 2.55.344 0 .188-2.169 2.504-4.822 5.148l-4.823 4.808-.28-1.487c-.153-.819-.889-2.776-1.634-4.349l-1.353-2.859-18.28 18.24L16.094 59.57l-4.106 1.103c-2.257.605-4.103 1.011-4.103.9zM43.218 27.18c3.728-3.7 6.663-6.916 6.52-7.147-.255-.413-13.902 12.879-13.902 13.54 0 .81.978-.034 7.382-6.391zm12.314 33.47-4.043-1.096-8.15-8.158-8.15-8.16 3.089-3.115 3.089-3.112 8.063 8.054 8.064 8.055 1.188 4.188c.654 2.304 1.123 4.244 1.041 4.313-.08.067-1.967-.37-4.192-.97zM6.785 48.44c-1.667-3.612-2.896-8.883-2.893-12.405.003-2.509.696-7.409 1.107-7.82.134-.135 1.612 1.107 3.28 2.762l3.032 3.01.235 3.438c.151 2.206.65 4.458 1.385 6.28l1.147 2.842-2.528 2.555c-1.392 1.406-2.699 2.556-2.905 2.556-.206 0-1.043-1.449-1.862-3.218zm49.346.662-2.529-2.555 1.114-2.757c.69-1.71 1.217-4.1 1.385-6.282l.273-3.525 3.03-3.007c1.666-1.656 3.143-2.895 3.28-2.759.136.138.462 1.526.722 3.082.922 5.551-.282 12.875-3.002 18.251-.587 1.159-1.218 2.108-1.405 2.108-.185 0-1.476-1.15-2.868-2.556zm-25.175-1.351c0-.196.659-.995 1.465-1.776l1.464-1.419 1.42 1.464c.78.805 1.42 1.605 1.42 1.778 0 .17-1.298.31-2.885.31-1.586 0-2.884-.161-2.884-.357zM21.47 37.18c-.145-.945-.118-2.378.063-3.185l.327-1.466 1.536 1.585 1.538 1.586-1.6 1.6-1.6 1.6zm22.44.145-1.417-1.462 1.71-1.672 1.712-1.672.257 1.582c.28 1.722-.067 4.689-.545 4.689-.165 0-.938-.66-1.717-1.465zm-23.252-8.61-5.63-5.629-1.353 2.86c-.745 1.572-1.48 3.53-1.633 4.348l-.28 1.487-4.824-4.808c-2.653-2.644-4.823-4.96-4.823-5.148 0-.188 1.154-.34 2.563-.34 2.468 0 2.59-.056 3.39-1.543.459-.847 1.21-1.885 1.673-2.303.815-.738.696-.909-3.656-5.274L1.59 7.855l1.433-1.632c2.708-3.084 2.688-3.087 7.494 1.699l4.293 4.278 2.51-1.654 2.513-1.653-.268-2.578c-.151-1.449-.094-2.577.134-2.577.221 0 2.582 2.187 5.249 4.861 3.186 3.197 4.628 4.93 4.209 5.058-2.539.772-6.11 2.214-6.837 2.757-.832.62-.614.91 4.65 6.188l5.524 5.538-1.361 1.362-1.362 1.361-5.623-5.6c-3.208-3.192-5.834-5.468-6.111-5.297-.292.18 1.816 2.611 5.21 6.012l5.699 5.71-1.33 1.33-1.328 1.328zm11.506-3.442c-1.9-1.66-1.612-2.02 1.603-2.007 2.85.01 3.191.483 1.514 2.09l-1.44 1.38zM29.21 10.198l-3.279-3.3 1.292-.361c.712-.198 3.69-.36 6.619-.36 2.928 0 5.906.162 6.617.36l1.295.36-3.28 3.3c-2.65 2.667-3.539 3.301-4.632 3.301-1.094 0-1.982-.632-4.632-3.3zM.075 5.72C-.355 4.005 1.12 2.185 2.94 2.185c.766 0 1.39.146 1.385.324-.005.18-.896 1.237-1.982 2.354L.37 6.894Zm64.962-1.118c-1.143-1.158-1.958-2.224-1.81-2.372.147-.147.82-.268 1.492-.268 1.955 0 3.728 2.767 2.725 4.256-.205.305-1.095-.292-2.407-1.616z" /></symbol>
        <symbol id="monk" width="100%" height="100%" viewBox="0 0 67.733 67.733"><path d="M33.697 67.46c-.147-.796-.908-5.32-1.69-10.056-.782-4.737-1.5-8.688-1.593-8.783-.187-.187-1.945 10.7-1.937 11.994.003.437-.072.715-.163.62-.092-.094-1.704-4.907-3.582-10.695-3.018-9.298-3.595-10.715-4.948-12.174-.842-.908-1.817-2.22-2.166-2.916-.586-1.169-3.555-13.175-3.686-14.906-.03-.418.671-1.732 1.557-2.92l1.613-2.162h16.743v2.246c0 1.78-.207 2.49-.995 3.406-.967 1.126-1.13 1.164-6.086 1.364l-5.092.207 1.32.722c1.005.55 2.292.722 5.4.722h4.08l2.437 2.858c1.341 1.572 2.48 2.815 2.53 2.765.05-.051-.534-1.755-1.298-3.787l-1.39-3.693 8.273-.113c4.55-.062 8.32-.062 8.376 0 .33.36-1.053 11.923-1.576 13.169-.346.827-1.277 2.22-2.068 3.096-1.252 1.388-1.86 2.966-4.726 12.28L39.744 61.39l-.913-5.942c-.5-3.266-1.023-6.219-1.157-6.559-.136-.341-1.026 4.024-1.98 9.697-1.322 7.887-1.793 9.977-1.997 8.873zm1.35-28.941c.032-.614.308-.622 3.176-.08 1.727.326 3.216.518 3.307.426.093-.093-1.611-.97-3.786-1.952l-3.952-1.786-3.709 1.818c-2.042 1-3.548 1.872-3.35 1.939.198.066 1.603-.14 3.122-.46 1.521-.318 2.831-.462 2.914-.318.081.143.273 1.56.424 3.149.515 5.418.764 5.73 1.317 1.65.276-2.043.517-4.016.538-4.386zM14.45 62.629c-1.98-.724-3.715-3.424-3.712-5.776.003-4.362 4.803-7.184 8.905-5.237 3.977 1.887 4.164 7.985.32 10.52-1.14.753-4.084 1.014-5.513.493zm-1.227-3.6c-.59-1.552-.53-2.299.185-2.299.808 0 2.022-1.892 1.72-2.68-.364-.945-1.347-.745-2.3.465-1.02 1.298-1.095 3.03-.206 4.75.78 1.505 1.2 1.34.6-.234zm34.76 3.235c-4.084-2.084-3.983-8.713.161-10.69 6.503-3.104 11.88 5.125 6.582 10.074-1.39 1.3-4.796 1.611-6.744.616zm7.104-3.038c.751-1.45.803-2.903.156-4.325-.542-1.186-1.869-1.77-2.527-1.113-.632.632.317 2.552 1.399 2.834.862.227.905 1.128.142 3.1-.457 1.182.15.818.83-.496zM8.795 48.906c-3.185-1.943-3.399-6.917-.38-8.894 3.788-2.482 8.51-.016 8.51 4.442 0 1.839-.17 2.225-1.601 3.659-1.373 1.372-1.861 1.602-3.405 1.6-1.06 0-2.347-.334-3.124-.808zm-.11-2.053c-.676-1.265-.503-2.117.606-2.99 1.232-.967 1.502-3.38.354-3.154-1.04.203-2.349 2.224-2.349 3.626 0 1.341.87 3.316 1.46 3.316.196 0 .165-.359-.069-.798zm45.141 2.46c-.472-.19-1.355-.935-1.96-1.654-1.427-1.697-1.541-4.703-.24-6.357 2.598-3.302 7.756-2.86 9.283.797.8 1.913.731 3.45-.223 5.016-1.359 2.228-4.39 3.2-6.86 2.199zm6.029-2.715c.842-1.572.636-3.802-.456-4.964-1.273-1.356-2.032-1.276-2.032.21 0 .796.35 1.484 1.032 2.019 1.11.873 1.282 1.725.604 2.99-.234.44-.265.798-.069.798.197 0 .61-.474.92-1.053zm-48.248-10.32c-1.486-1.251-2.018-3.363-1.29-5.12.474-1.144 2.003-2.49 2.83-2.49.207 0 .78 1.625 1.269 3.61.491 1.988.992 3.937 1.11 4.334.36 1.193-2.383.959-3.919-.334zm.306-2.242c-.442-1.264-.395-1.427.617-2.164 1.178-.858 1.463-1.966.506-1.966-.811 0-2.3 1.981-2.3 3.059 0 .877 1.169 2.924 1.487 2.605.094-.09-.047-.78-.31-1.534zm39.96 2.989c-.096-.172 0-1.516.219-2.992.215-1.475.479-3.286.583-4.024.156-1.107.372-1.341 1.23-1.341 2.208 0 3.875 1.962 3.875 4.56 0 1.892-2.302 4.106-4.267 4.106-.805 0-1.541-.14-1.638-.31zm5.082-3.89c0-1.544-1.227-3.208-2.374-3.222-.898-.011-.557 1.185.545 1.907 1.06.694 1.091.989.352 3.31-.192.597-.06.552.616-.214.474-.536.861-1.338.861-1.781zm-21.46-21.989c0-8.715.05-9.342.722-9.149.398.114 2.07.598 3.716 1.076l2.991.87v7.395c0 8.45.23 7.945-3.884 8.444-1.34.163-2.685.39-2.99.509-.453.173-.555-1.482-.555-9.145zm9.08 2.98c0-5.72.054-6.158.721-5.892.398.156 1.977.757 3.51 1.33l2.784 1.043v4.07c0 3.884-.042 4.08-.928 4.279l-3.51.778-2.578.57zm-27.41-.673c-.123-.198-.108-1.845.032-3.662l.256-3.303 3.33-1.187a227.872 227.872 0 0 0 3.656-1.325c.18-.074.327 2.106.327 4.851v4.985H21.08c-2.03 0-3.79-.16-3.912-.359zm9.345-6.335.114-6.696 1.753-.298c.965-.165 2.542-.165 3.51 0l1.752.298.113 6.696.113 6.694h-7.469z" /></symbol>
        <symbol id="paladin" width="100%" height="100%" viewBox="0 0 67.733 67.733"><path d="M21.788 59.708c-4.248-2.614-7.881-4.908-8.072-5.095-.197-.195.015-.928.495-1.707.697-1.126.842-1.98.842-4.959V44.35l-1.814-1.505c-1.786-1.482-6.61-6.878-6.368-7.122.069-.069.967.162 1.997.512 1.029.35 1.953.557 2.052.457.1-.1-1.113-.966-2.696-1.926-2.73-1.657-2.961-1.916-4.566-5.075-.928-1.83-1.614-3.402-1.521-3.495.09-.091 1.516.771 3.166 1.916 1.649 1.149 3.071 2.007 3.161 1.914.09-.096-1.496-1.671-3.522-3.5L1.256 23.2.81 20.583C.087 16.35.012 15.787.175 15.787c.085 0 1.864 1.869 3.953 4.154 2.087 2.285 3.796 4.01 3.796 3.831 0-.18-1.782-2.7-3.962-5.608L0 12.878V7.915c0-2.857.147-4.803.347-4.59.19.209 3.516 5.726 7.39 12.263 3.873 6.536 7.302 12.24 7.619 12.676.612.842.605.734-.151-2.396-.315-1.305 2.743-5.494 7.435-10.18 6.024-6.02 5.884-6.098 5.884 3.266 0 4.14.15 7.527.334 7.527.184 0 .63-.325.99-.723.561-.62.656-1.793.656-8.08 0-6.54-.075-7.381-.67-7.612-.513-.194-.134-.578 1.604-1.626 1.252-.753 2.346-1.37 2.433-1.37.087 0 1.183.617 2.433 1.37 1.74 1.048 2.117 1.43 1.604 1.626-.596.23-.67 1.075-.67 7.681 0 6.689.072 7.487.725 8.08.398.359.845.654.99.654.147 0 .266-3.387.266-7.527 0-9.364-.14-9.286 5.885-3.268 4.866 4.863 7.752 8.868 7.41 10.281-.122.5-.327 1.4-.457 2-.129.6 3.234-4.665 7.471-11.697 4.239-7.033 7.82-12.9 7.961-13.042.14-.137.249 1.962.244 4.667l-.009 4.919-3.953 5.34c-2.174 2.934-3.952 5.48-3.952 5.656 0 .175 1.648-1.542 3.665-3.818 2.015-2.278 3.767-4.155 3.893-4.173.26-.038.114 1.493-.472 4.926-.401 2.35-.467 2.44-4.095 5.746-2.029 1.846-3.619 3.434-3.533 3.526.084.093 1.501-.77 3.147-1.92 1.647-1.15 3.074-2.011 3.171-1.913.097.098-.584 1.674-1.512 3.504-1.602 3.16-1.836 3.418-4.567 5.076-1.58.958-2.794 1.826-2.695 1.925.1.1 1.024-.105 2.053-.456 1.03-.35 1.92-.589 1.98-.529.213.214-4.445 5.428-6.285 7.031l-1.88 1.641v3.631c0 2.968.15 3.875.819 4.97.449.738.672 1.483.494 1.658-.373.366-15.898 9.876-16.123 9.876-.08 0-.262-4.232-.403-9.407-.139-5.176-.36-11.237-.49-13.47l-.239-4.06h3.736c3.665 0 3.76-.024 5.028-1.264 1.302-1.274 2.093-2.545 2.598-4.183l.275-.892h-5.178c-4.72 0-5.176-.063-5.176-.713 0-.392-.21-.922-.464-1.177-.355-.355-.808.094-1.927 1.914-.804 1.307-1.557 2.473-1.677 2.59-.116.12-.911-.952-1.766-2.38-1.19-1.988-1.662-2.486-2.019-2.127-.256.255-.465.788-.465 1.18 0 .65-.455.713-5.15.713-3.86 0-5.15.124-5.147.494.007.927 2.312 4.525 3.32 5.186.753.493 1.917.66 4.627.66h3.62l-.231 3.068c-.126 1.69-.345 7.75-.484 13.47-.14 5.72-.365 10.388-.503 10.373-.138-.015-3.728-2.165-7.976-4.78z" /></symbol>
        <symbol id="ranger" width="100%" height="100%" viewBox="0 0 67.733 67.733"><path d="M29.067 67.516c0-.12.941-1.51 2.088-3.09l2.087-2.87-1.22-23.309c-.673-12.82-1.31-23.396-1.418-23.503-.108-.108-.915.294-1.799.893-.88.599-1.665 1.024-1.744.947-.08-.08 1.434-3.995 3.365-8.704 2.421-5.91 3.597-8.328 3.8-7.812.16.41 1.74 4.27 3.511 8.575 1.773 4.304 3.164 7.885 3.095 7.956-.07.07-.848-.363-1.73-.962-.881-.6-1.696-.996-1.81-.882-.114.114-.762 10.676-1.442 23.47l-1.236 23.261 2.113 2.907c1.163 1.598 2.113 3.003 2.113 3.123 0 .429-1.512.145-3.186-.597-1.634-.724-1.77-.723-3.54.032-1.806.77-3.045.999-3.045.565zm-13.61-12.664c-7.586-4.978-13.843-9.325-13.9-9.662-.066-.371 1.378-1.5 3.684-2.878 3.415-2.043 3.907-2.499 4.93-4.588.623-1.277 2.168-3.437 3.431-4.802L15.9 30.44l-1.535-3.235c-.845-1.777-1.674-3.234-1.842-3.234-.169 0-.562.479-.874 1.063-.313.585-.727 1.062-.922 1.062-.194 0-.353-3.2-.353-7.11v-7.11l5.099 5.085a1037.817 1037.817 0 0 1 5.098 5.104c0 .01-.769-.056-1.708-.145l-1.71-.163 1.029 2.834c.567 1.56 1.125 2.932 1.243 3.051.119.117.949-.157 1.848-.61.9-.45 2.33-1.046 3.18-1.32 1.323-.429 1.716-.88 2.731-3.138l1.189-2.638.305 2.548c.808 6.74.9 9.555.323 9.725-1.972.578-4.582 1.648-5.722 2.345l-1.328.814 3.982 11.338c2.192 6.237 3.986 11.512 3.986 11.723 0 1.207-.909-.219-3.08-4.834l-5.01-10.644-2.57-5.452-1.313 1.628c-2.094 2.594-4.574 8.674-4.593 11.254-.003.44 3.067 2.819 8.174 6.328a1583.294 1583.294 0 0 1 8.325 5.744c.08.066-.023.417-.227.785-.306.546-2.804-.931-14.167-8.386zm22.804 8.764c-.73-.73.33-1.645 8.015-6.917 4.557-3.127 8.286-5.861 8.286-6.08 0-3.41-5.049-13.668-6.173-12.543-.12.12-2.385 4.777-5.033 10.35-2.646 5.572-5.03 10.203-5.294 10.293-.267.087.775-3.44 2.315-7.84 4.156-11.877 5.261-15.134 5.261-15.505 0-.478-2.39-1.66-5.015-2.479-1.24-.385-2.264-.833-2.28-.992-.082-.852.61-9.231.864-10.474l.297-1.453 1.106 2.548c1.092 2.517 1.145 2.565 4.228 3.805 1.719.69 3.235 1.305 3.368 1.37.24.112 2.12-4.86 2.11-5.58-.003-.2-.673-.287-1.49-.192-.82.096-1.487.066-1.487-.064 0-.134 2.198-2.435 4.885-5.115l4.887-4.872-.002 7.216-.002 7.216-1.015-1.267-1.013-1.269-1.609 3.25-1.607 3.25 2.1 2.3c1.156 1.266 2.727 3.472 3.49 4.903 1.243 2.332 1.758 2.826 4.94 4.749 1.954 1.18 3.654 2.415 3.781 2.746.16.417-3.838 3.28-13.192 9.45-15.77 10.403-14.38 9.534-14.72 9.196z" /></symbol>
        <symbol id="rogue" width="100%" height="100%" viewBox="0 0 67.733 67.733"><path d="M22.46 58.235c-6.197-5.488-11.314-10.115-11.37-10.284-.085-.262 1.143-1.212 3.571-2.76.319-.204 2.004 1.411 4.658 4.471 4.426 5.102 5.958 6.758 5.617 6.068a526.233 526.233 0 0 0-3.68-6.438c-1.905-3.308-3.466-6.124-3.466-6.26 0-.532 3.929-2.916 4.24-2.571.181.201 2.494 5.636 5.138 12.075 2.646 6.441 4.973 11.894 5.17 12.116.754.853.265-2.071-2.342-13.984-2.831-12.933-3.037-13.461-5.282-13.461-1.457 0-2.572.666-9.905 5.914-3.75 2.683-7.2 4.838-7.99 4.99-1.908.363-3.783-.507-5.023-2.336C.502 43.871.41 42.954 1.582 43.58c1.528.818 3.632.494 5.702-.877 1.094-.724 2.082-1.466 2.195-1.65.369-.595-.993-4.432-2.31-6.507-1.068-1.683-1.498-2.023-2.57-2.023-1.19 0-1.287-.112-1.287-1.51 0-2.628 3.046-4.715 5.35-3.666.904.412.975.605.59 1.616-.375.987-.264 1.363.792 2.673 1.7 2.112 5.578 5.22 6.106 4.893.272-.167.327-1.204.148-2.747-.748-6.454 3.12-10.997 10.57-12.409l2.755-.525.257-1.886c.143-1.038.26-2.803.26-3.922 0-3.407.299-3.68 2.1-1.92l1.56 1.524 1.447-1.493c.796-.821 1.602-1.494 1.79-1.494.188 0 .341.93.341 2.068 0 1.136.123 3.225.27 4.642l.27 2.575 2.29.286c1.26.158 3.616.95 5.237 1.76 4.645 2.323 6.449 5.77 5.787 11.066-.264 2.102-.215 2.301.547 2.301.91 0 4.661-3.174 6.04-5.11.686-.964.773-1.427.435-2.317-.378-.995-.3-1.162.724-1.552 2.53-.96 5.228.853 5.228 3.518 0 1.525-.08 1.63-1.272 1.63-1.03 0-1.485.337-2.386 1.763-.873 1.384-2.73 5.87-2.73 6.596 0 .074 1.004.81 2.23 1.636 1.674 1.127 2.677 1.502 4.021 1.502.985 0 1.909-.193 2.054-.427.144-.233.447-.424.672-.424.816 0-1.38 3.46-2.713 4.273-2.648 1.614-3.478 1.282-11.874-4.732-6.506-4.66-7.948-5.504-9.404-5.504-2.176 0-2.382.532-5.242 13.567-1.507 6.861-2.738 12.747-2.738 13.08 0 1.74 1.066-.412 5.446-10.997 2.64-6.383 4.966-11.868 5.167-12.19.29-.467.758-.314 2.327.766 1.078.744 1.963 1.516 1.963 1.717 0 .201-1.11 2.252-2.47 4.557-3.96 6.717-4.814 8.237-4.638 8.237.09 0 2.317-2.492 4.947-5.537 2.631-3.043 4.872-5.536 4.981-5.536.317 0 3.96 2.747 3.977 3 .016.207-19.752 17.925-21.907 19.635-.86.682-1.217.41-12.156-9.27zm12.35-20.201c.473-5.022.86-9.301.862-9.509.005-.516 5.506-.038 6.073.53.323.322.267 1.32-.198 3.433l-.652 2.977 1.368-1.046c1.701-1.295 4.149-1.376 6.08-.198 1.62.988 1.732.6.57-1.96-.892-1.964-2.721-3.49-5.573-4.645-2.495-1.01-13.058-1.41-16.582-.628-5.22 1.16-7.817 3.226-8.704 6.926l-.282 1.175 1.6-.857c2.29-1.228 4.43-1.118 6.135.314.789.66 1.288.889 1.148.522-.665-1.745-1.243-5.651-.889-6.007.38-.38 6.073-1.083 6.082-.751.004.091.383 4.096.847 8.897.463 4.802.843 9.098.846 9.545.004.45.097.724.208.615.113-.113.59-4.313 1.062-9.335zM30.87 9.455c-1.573-1.406-2.86-2.83-2.86-3.167 0-1.082 2.148-3.895 3.898-5.108L33.609 0l1.503.81c1.732.933 3.884 3.368 4.252 4.815.198.777-.15 1.405-1.61 2.908-1.026 1.054-2.35 2.268-2.946 2.698l-1.078.78z" /></symbol>
        <symbol id="sorcerer" width="100%" height="100%" viewBox="0 0 67.733 67.733"><path d="M33.248 66.45a96.756 96.756 0 0 1-.907-4.082c-.388-1.941-.881-2.917-2.297-4.536-2.192-2.506-4.508-7.132-5.343-10.67-.899-3.817-.808-10.282.2-14.225.455-1.783.758-3.313.67-3.401-.286-.287-3.113 3.854-3.928 5.757-1.917 4.472-2.036 8.19-.428 13.42.832 2.71 3.392 7.014 5.465 9.19 1.917 2.011.83 1.64-3.495-1.196-6.696-4.39-12.883-11.15-15.242-16.652l-.83-1.936h3.093c1.7 0 3.093-.1 3.093-.22 0-.121-.376-1.338-.836-2.702C11.415 32.089 10.62 24.796 11 21.766l.287-2.293h4.084c3.924 0 4.117.044 4.948 1.1.475.604.924 1.023 1 .933.073-.094 1.434-2.684 3.022-5.762C26.937 10.71 33.397 0 33.835 0c.652 0 10.425 16.615 11.63 19.769.374.977.818 1.776.989 1.776.172 0 .615-.465.99-1.035.648-.99.861-1.037 4.767-1.037 4.759 0 4.593-.157 4.593 4.355 0 4.034-.713 8.995-1.692 11.79-.438 1.245-.794 2.31-.794 2.365 0 .055 1.418.156 3.151.222l3.15.12-1.678 3.242c-2.797 5.4-6.762 9.7-13.325 14.45-1.827 1.321-5.387 3.378-5.387 3.11 0-.11.758-1.107 1.684-2.215 2.38-2.85 4.817-8.067 5.424-11.614.603-3.52.138-6.82-1.439-10.203-1.022-2.192-3.531-5.88-3.81-5.601-.085.084.22 1.547.673 3.25 1.056 3.94 1.147 11.09.188 14.697-.914 3.446-3.166 7.868-5.352 10.511-1.594 1.928-1.936 2.698-2.568 5.8-.4 1.968-.871 3.74-1.048 3.94-.175.201-.506-.36-.733-1.243zm1.947-13.623c1.44-4.96 1.87-8.096 1.876-13.671.006-5.384-.025-5.595-2.991-20.718l-.325-1.657-.32 2.279c-.176 1.252-.882 5.073-1.568 8.493-1.973 9.824-1.737 17.608.78 25.636.562 1.791 1.174 3.097 1.362 2.898.188-.197.722-1.664 1.186-3.26zm-14.277 8.707c-6.81-1.482-10.72-5.406-11.565-11.607l-.282-2.072 1.292 1.993c2.972 4.587 7.285 8.187 13.032 10.884 2.742 1.289 2.85 1.387 1.505 1.37-.799-.01-2.589-.266-3.982-.568zm24.495-1.416c4.8-2.355 8.962-5.888 11.516-9.776l1.632-2.487-.282 2.253c-.359 2.87-1.98 6.31-3.627 7.696-2.748 2.31-8.358 4.317-12.14 4.337-.975.008-.358-.424 2.9-2.023zM13.525 14.813c.725-2.396 3.031-5.948 5.388-8.295 2.678-2.669 4.964-4.282 5.285-3.727.102.173-.728 1.9-1.844 3.836-1.117 1.937-2.436 4.781-2.93 6.319l-.902 2.798h-2.64c-2.544 0-2.63-.033-2.357-.931zm35.693.621c-.099-.172-.415-1.057-.705-1.968-.585-1.846-3.22-7.161-4.555-9.183-1.375-2.087-.268-2.053 2.5.077 3.372 2.595 6.54 6.937 7.627 10.453.277.895.19.931-2.2.931-1.37 0-2.57-.14-2.667-.31z" /></symbol>
        <symbol id="warlock" width="100%" height="100%" viewBox="0 0 67.733 67.733"><path d="M35.125 67.55c-.257-.308-.583-1.816-.725-3.349-.143-1.531-.382-2.862-.533-2.954-.152-.094-.387 1.164-.526 2.797-.225 2.663-.687 4.044-1.187 3.545-.099-.1-1.072-3.132-2.165-6.741-2.468-8.15-4.358-13.287-5.883-15.983-1.437-2.541-4.672-5.842-6.643-6.776-.804-.382-4.704-1.56-8.667-2.619-3.963-1.06-7.272-1.993-7.356-2.075-.442-.442 2.346-.925 7.643-1.318 6.286-.467 8.038-.936 9.795-2.618 1.382-1.324 1.592-2.046 3.19-10.933 1.78-9.887 1.78-13.618-.003-17.921-.6-1.454 2.122.472 3.304 2.335 1.813 2.861 2.468 6.697 2.158 12.657-.145 2.78-.371 5.75-.504 6.6-.225 1.44-.194 1.509.434.99 1.192-.983 2.937-3.814 3.852-6.245l.888-2.362.726 3.317c.4 1.825.844 3.192.984 3.037.14-.155.557-1.67.926-3.367l.672-3.085.848 2.341c1.013 2.794 2.119 4.657 3.536 5.962l1.046.959-.229-.966c-.126-.532-.348-3.663-.492-6.96-.291-6.655.157-9.513 1.981-12.625.884-1.51 3.105-3.52 3.478-3.148.088.088-.205 1.108-.653 2.265-1.248 3.222-1.105 7.219.587 16.409 1.594 8.659 1.808 9.357 3.27 10.759 1.735 1.661 3.504 2.133 9.776 2.6 5.302.394 8.084.875 7.64 1.319-.084.083-3.543 1.047-7.687 2.143-8.513 2.252-10.462 3.237-13.189 6.66-.891 1.12-2.183 3.254-2.873 4.741-1.145 2.475-4.562 12.69-6.257 18.706-.57 2.025-.779 2.367-1.161 1.904zm3.205-27.02c.86-.403 2.15-1.338 2.867-2.077 1.077-1.11 1.334-1.71 1.478-3.443.185-2.231-.685-5.627-1.645-6.424-.405-.336-1.25-.108-3.652.99-1.718.786-3.124 1.524-3.124 1.64 0 .116.355.59.79 1.053l.793.843-.87 2.952c-.477 1.623-.983 2.951-1.123 2.951s-.646-1.373-1.126-3.05l-.867-3.052.895-.896.896-.894-3.077-1.455c-1.693-.8-3.274-1.46-3.513-1.466-.238-.006-.829.902-1.31 2.018-1.097 2.546-1.157 5.502-.146 7.219.915 1.553 3.684 3.422 5.524 3.727.767.129 1.568.294 1.781.368.797.28 3.92-.3 5.429-1.005zm.944-3.999c.339-1.502-.015-3.375-.823-4.349-.38-.455-.362-.642.08-.922.823-.52 1.063-.448 1.552.465.6 1.12.256 4.851-.519 5.626-.56.561-.585.49-.29-.82zm-11.611.132c-.833-1.558-.313-5.783.708-5.76 1.064.023 1.203.682.453 2.142-.57 1.113-.717 1.917-.54 2.975.267 1.616.032 1.86-.621.643zM23.339 57.99c-7.441-3.176-13.219-9.776-15.73-17.97-.448-1.468-.77-2.7-.715-2.738.058-.038 2.016.444 4.356 1.071l4.252 1.14.853 1.792c1.009 2.117 4.248 5.86 6.02 6.957 1.1.68 1.44 1.34 2.755 5.343.824 2.514 1.58 4.786 1.68 5.052.275.736-.616.57-3.471-.647zm17.646.469c2.65-8.344 3.084-9.27 5.09-10.85 2.331-1.835 4.02-3.89 5.207-6.332l.867-1.785 4.015-1.064c2.21-.585 4.127-.954 4.261-.818.442.438-1.056 4.99-2.645 8.045-3.14 6.035-10.014 11.743-15.921 13.222-.936.233-1.063.173-.874-.418zM6.595 28.924c1.146-7.401 4.49-13.229 9.727-16.965l1.888-1.345-1.462 1.926c-.803 1.058-2.06 3.09-2.795 4.511-1.973 3.818-2.673 7.683-.827 4.56.947-1.604 4.282-4.886 5.72-5.628l1.182-.612-1.148 1.674a27.593 27.593 0 0 0-4.515 11.194c-.232 1.398-.237 1.4-2.64 1.662-1.324.147-3.08.366-3.902.493l-1.493.23zm50.027 1.103-2.956-.374-.797-3.418c-.824-3.535-2.031-6.298-4.018-9.194l-1.15-1.678 1.025.537c1.308.685 5.11 4.404 5.94 5.807.991 1.679 1.253 1.26.601-.959-.777-2.65-2.59-6.042-4.286-8.022-.745-.872-1.281-1.656-1.194-1.745.088-.088 1.147.614 2.353 1.562 4.968 3.899 7.774 9.06 8.978 16.517.269 1.663.542 1.604-4.496.967zM32.946 10.502c-.59-2.741-.593-3.168-.04-5.027.333-1.115.76-2.028.946-2.028.423 0 1.174 2.2 1.267 3.712.09 1.45-.866 6.34-1.239 6.34-.158 0-.578-1.349-.934-2.996z" /></symbol>
        <symbol id="wizard" width="100%" height="100%" viewBox="0 0 67.733 67.733"><path d="M31.91 67.14c-4.043-1.087-7.244-2.976-10.437-6.159-3.461-3.449-4.879-5.871-5.994-10.233-1.33-5.199-.928-9.254 1.381-13.964 1.67-3.405 4.295-6.363 10.774-12.133 5.88-5.238 8.328-8.333 9.44-11.929.957-3.098 1.047-7.364.222-10.523L36.722 0l.985 1.198c2.628 3.198 3.521 11.495 1.786 16.595-1.224 3.601-2.974 6.336-7.029 10.997-4.002 4.6-6.225 8.71-6.498 12.021l-.176 2.108 3.347-.757c1.839-.415 3.923-.87 4.63-1.008.707-.139 1.472-.479 1.702-.755.23-.275.889-2.642 1.464-5.257.575-2.614 1.175-4.893 1.33-5.066.154-.17.768 1.988 1.363 4.799.596 2.81 1.3 5.317 1.568 5.569.266.252 2.283.85 4.484 1.33 2.199.48 4.313.961 4.697 1.068 1.309.368.858-2.765-1.097-7.654-.206-.514.282-.227 1.363.8 2.394 2.274 4.328 6.445 4.79 10.327.205 1.723.451 3.209.545 3.304.36.36 1.556-4.145 1.76-6.635.268-3.264-.62-7.607-2.277-11.158l-1.232-2.637 1.61 1.567c1.931 1.882 4.186 6.03 5.023 9.25.783 3.004.782 7.753 0 10.76-1.978 7.588-8.91 14.33-16.84 16.377-3.058.789-9.172.787-12.11-.003zm5.4-13.459c-.144-.935-.569-2.959-.945-4.499l-.685-2.799-3.468-.849c-1.907-.467-4.099-.967-4.87-1.112l-1.4-.263.414 1.511c.613 2.234 1.404 3.597 3.24 5.589 1.749 1.897 3.103 2.746 5.684 3.562 2.306.73 2.315.724 2.03-1.14zm6.167.439c3.179-1.376 6.197-4.953 7.14-8.467l.41-1.53-1.474.249c-.813.136-3.094.645-5.07 1.13l-3.593.881-.673 2.908a101.253 101.253 0 0 0-.946 4.54l-.276 1.632 1.342-.282c.737-.155 2.15-.632 3.14-1.06zm-31.773 3.93c-5.907-6.252-7.04-14.257-3.121-22.064 1.389-2.766 4.74-6.786 8.196-9.824 5.36-4.715 8.014-7.358 9.203-9.17.765-1.169 1.078-1.448.89-.8-.501 1.73-1.252 2.906-3.96 6.198-8.04 9.778-10.894 14.31-12.021 19.092-1.382 5.858-.236 13.33 2.696 17.596 1.22 1.776.287 1.265-1.883-1.032zm36.221-28.73c-.573-2.638-.861-2.942-3.145-3.32-2.297-.377-2.463-.88-.404-1.22 2.574-.427 2.917-.749 3.492-3.265l.529-2.323.498 2.176c.575 2.494 1.196 3.086 3.629 3.45 2.13.321 1.96.791-.411 1.146-2.157.324-2.711.93-3.266 3.577l-.43 2.048z" /></symbol>
    </defs>
</svg>