<svg xmlns="http://www.w3.org/2000/svg" xmlns:xlink="http://www.w3.org/1999/xlink" aria-hidden="true" style="position: absolute; width: 0; height: 0; overflow: hidden;">
    <defs>
        <symbol id="blinded" viewBox="0 0 33.867 33.867"><path d="M15.81 27.154c-3.98-.23-7.913-1.785-10.998-4.349-1.736-1.443-3.04-2.974-4.3-5.05L0 16.914l.512-.843c1.26-2.074 2.564-3.606 4.3-5.049a19.37 19.37 0 0 1 6.503-3.53c4.612-1.444 9.744-1.025 14.07 1.15 3.398 1.707 5.927 4.065 7.97 7.43l.512.842-.51.843a28.2 28.2 0 0 1-.91 1.405 19.134 19.134 0 0 1-12.578 7.794c-.686.11-2.984.299-3.134.259a33.12 33.12 0 0 0-.925-.06zm-5.63-4.805c-1.138-1.198-1.98-3.172-2.174-5.105-.17-1.674.13-3.287.904-4.851.16-.323.29-.597.29-.61 0-.084-1.494.904-2.148 1.421-1.05.829-2.466 2.336-3.203 3.408l-.208.301.314.446C5 18.846 6.633 20.415 8.208 21.447c.71.465 2.124 1.23 2.176 1.178.017-.016-.075-.14-.204-.276zm8.336-.088c.62-.144 1.582-.579 2.086-.944 1.793-1.299 2.764-3.5 2.483-5.627-.075-.565-.437-1.817-.525-1.817-.023 0-1.838 1.796-4.033 3.991l-3.992 3.992.29.128c1.06.467 2.429.57 3.69.277zm7.255-.895c.966-.644 1.355-.96 2.257-1.838.74-.72 1.387-1.464 1.887-2.169l.316-.446-.308-.432c-1.113-1.559-2.674-3.065-4.248-4.1-.242-.158-.45-.277-.464-.264-.014.013.05.17.14.348.245.483.603 1.56.743 2.234.182.88.169 2.6-.03 3.52-.313 1.466-1.085 3.066-1.951 4.041-.214.242.668-.233 1.658-.894zm-5.337-9.975c-.132-.16-1.312-.693-1.848-.836-.735-.195-2.177-.21-2.842-.03-1.386.376-2.355.97-3.22 1.975a6.023 6.023 0 0 0-1.272 5.385c.14.55.295.922.636 1.532l.236.421 4.186-4.186c2.909-2.908 4.168-4.209 4.124-4.261zm13.433 5.522s0 .001 0 0z" style="stroke-width:1"/></symbol>
        <symbol id="charmed" viewBox="0 0 33.867 33.867"><path d="M16.653 6.648c-1.81.021-3.609.306-5.338.845a19.374 19.374 0 0 0-6.503 3.53c-1.737 1.443-3.04 2.974-4.3 5.048L0 16.914l.512.843c1.26 2.074 2.563 3.606 4.3 5.05 3.085 2.564 7.017 4.118 10.998 4.348.49.028.907.055.925.06.15.04 2.448-.15 3.134-.26a19.133 19.133 0 0 0 12.577-7.793c.22-.31.63-.942.91-1.405l.51-.843-.51-.843c-2.044-3.364-4.573-5.722-7.97-7.43a18.954 18.954 0 0 0-8.733-1.993ZM9.2 11.784c0 .012-.13.287-.29.61-.773 1.564-1.074 3.177-.905 4.85.196 1.934 1.036 3.908 2.174 5.106.13.135.221.26.205.276-.052.053-1.466-.713-2.176-1.178-1.575-1.032-3.208-2.6-4.254-4.088l-.313-.445.207-.302c.737-1.072 2.155-2.58 3.204-3.408.655-.517 2.148-1.505 2.148-1.42zm5.275.318c.501 0 .871.084 1.307.296.45.22.706.427 1.11.906.151.18.283.325.294.325.011 0 .148-.15.304-.336.476-.563.874-.848 1.454-1.042.376-.125.613-.157 1.062-.143.315.01.446.025.633.074a3.015 3.015 0 0 1 2.262 2.928c0 .57-.186 1.176-.506 1.65-.08.12-1.717 2.083-4.04 4.847-.186.22-.52.62-.746.889a9.55 9.55 0 0 1-.423.488c-.007 0-.952-1.12-2.1-2.488l-2.567-3.06c-.518-.62-.655-.818-.802-1.159a2.998 2.998 0 0 1 .683-3.35 2.902 2.902 0 0 1 2.075-.825zm10.735.016c.014-.013.223.106.465.265 1.574 1.034 3.135 2.54 4.247 4.1l.31.431-.318.446a16.02 16.02 0 0 1-1.886 2.17c-.902.876-1.29 1.193-2.257 1.838-.99.66-1.873 1.135-1.658.893.865-.976 1.638-2.575 1.952-4.042.197-.92.21-2.64.028-3.52-.14-.673-.498-1.75-.742-2.233-.09-.178-.154-.335-.14-.348z" style="stroke-width:1"/></symbol>
        <symbol id="deafened" viewBox="0 0 33.867 33.867"><path d="m29.884 0-6.355 10.71a6.03 6.03 0 0 0-.132-.432c-.865-2.518-1.854-3.858-3.436-4.655-1.443-.727-3.642-1-5.25-.65a6.267 6.267 0 0 0-2.19.954c-.697.493-1.463 1.35-1.942 2.176-.527.91-.988 2.343-1.182 3.682-.098.67-.098 2.194-.002 2.823.251 1.635.753 2.793 1.9 4.383.174.24.339.46.508.674L3.988 33.86c.012-.018 5.762-8.308 9.036-12.79.264.28.561.59.916.95 1.15 1.17 1.26 1.359 1.544 2.625.177.79.328 1.247.563 1.706.33.644.91 1.364 1.388 1.724.5.378 1.36.735 2.135.886.396.077 1.38.11 1.718.058h-.001c2.08-.323 3.253-1.886 3.257-4.34 0-.38-.012-.478-.083-.624-.12-.245-.334-.379-.641-.397-.211-.012-.264 0-.407.095-.29.19-.34.334-.372 1.061-.032.728-.12 1.14-.335 1.589-.185.384-.535.745-.886.91-.823.39-2.057.306-3.108-.212-.306-.15-.412-.23-.661-.495-.374-.397-.66-.83-.816-1.237-.067-.174-.2-.646-.293-1.048-.203-.863-.288-1.132-.492-1.545-.288-.583-.526-.872-1.736-2.108-.295-.3-.55-.568-.785-.821.636-.848 1.096-1.43 1.25-1.55.876-.684 3.506 6.326 3.506 6.326l1.138-2.502c.108-.01.208-.026.287-.047.408-.11.692-.257.943-.486.278-.254.384-.457.387-.74.003-.306-.097-.498-.533-1.028l-.024-.03zM3.988 33.86l-.005.007h.001zM16.444 6.32c.411.01.834.053 1.25.132 2.257.426 3.34 1.517 4.29 4.32.105.31.22.615.256.675.13.222.4.328.665.313l-1.866 3.144c-.106-.29-.275-.567-.546-.914-.764-.975-.93-1.31-1.197-2.423-.17-.7-.365-1.082-.751-1.465a2.934 2.934 0 0 0-1.206-.742 3.384 3.384 0 0 0-2.592.193c-.96.48-1.585 1.26-1.877 2.35-.097.36-.107.46-.11 1.145 0 .567.017.833.068 1.093.144.707.407 1.328.516 1.219.032-.032.05-.346.057-1.021.02-1.693.247-2.57.796-3.055.218-.192.727-.446 1.068-.531.575-.144 1.24.07 1.706.55.792.816 1.099 2.485.757 3.917l-1.361-3.844-3.775 6.855c-.156-.214-.31-.432-.472-.673-.925-1.382-1.292-2.62-1.29-4.352 0-1.26.213-2.407.652-3.513.63-1.586 1.716-2.684 3.1-3.137.526-.172 1.177-.252 1.862-.236z" style="stroke-width:1"/></symbol>
        <symbol id="frightened" viewBox="0 0 33.867 33.867"><path d="M21.653 33.835a3.37 3.37 0 0 0 .144-.434c.107-.375.15-.803.274-2.766.057-.885.218-1.606.442-1.977.1-.166.103-.196.03-.344-.15-.302-.202-.61-.201-1.196 0-.634.097-1.133.312-1.615.132-.297.458-.76.535-.76.023 0 .057.083.077.187.02.103.107.27.194.372.087.101.158.195.158.21 0 .013-.065.045-.144.07-.112.036-.137.07-.114.15.148.51.18 1.79.056 2.174l-.037.113.195-.13c.17-.116.2-.166.228-.394.047-.38.25-1.207.344-1.394.076-.155.084-.158.185-.08.136.103.19.446.119.756-.05.212-.04.283.085.582.078.188.185.55.239.807l.097.466.036-.443c.02-.243.03-.865.022-1.382-.015-.912-.011-.943.109-1.07.284-.305.312-.413.3-1.166-.007-.603.008-.753.107-1.025.137-.376.413-.854.492-.854.036 0 .042.131.019.37-.032.323-.022.392.083.562.097.157.11.223.067.351-.037.115-.03.22.032.38.05.137.098.52.12.992.035.702.044.753.105.583.037-.103.105-.564.15-1.025.128-1.276.236-1.69.508-1.944.068-.063.086-.166.077-.435-.01-.283.01-.383.1-.513.13-.186.178-.144-.488-.428-.502-.213-.637-.368-.55-.632.079-.243.32-.457.712-.634.185-.083.472-.263.638-.4l.304-.25-.21.024c-.89.106-1.236.258-1.825.8-.404.372-.852.664-.924.603-.01-.01.055-.094.147-.189.158-.16.164-.18.099-.333-.118-.276-.03-.355.777-.702.605-.26.758-.348.954-.55.414-.427.834-.755 1.107-.867.24-.098.318-.106.8-.083.293.015.78.08 1.085.146.856.186 1.464.145 1.867-.127l.158-.106-.3-.08c-.612-.162-.98-.589-.9-1.044.087-.48.337-.666.903-.666h.348l-.11-.13-.11-.132.272-.198c.15-.108.272-.229.272-.267 0-.12-.253-.274-.64-.39-.51-.152-1.082-.486-1.574-.92-.454-.402-.686-.74-.632-.92.079-.268.928-.499 1.47-.4.314.056.628.197.708.318.04.063.069.05.167-.085.42-.576.405-1.806-.03-2.532-.222-.37-.291-.564-.354-1.004-.054-.373-.017-1.023.084-1.447.015-.064-.047.072-.14.303-.262.662-.3 1.096-.156 1.77.235 1.104.196 1.458-.183 1.653-.402.207-.77.072-1.033-.38a1.815 1.815 0 0 1-.205-.53c-.057-.41.304-1.804.647-2.493.28-.563.33-.773.364-1.513.052-1.14-.085-2.289-.447-3.749-1.035-2.252-1.598-2.998-1.09-1.929.112.353.809 2.176.54 3.161-.254.932-1.08.373-.916 1.121.153.707.144.927-.06 1.362-.093.2-.21.414-.258.478l-.088.116-.05-.14c-.081-.237-.116-1.284-.05-1.545.058-.227.05-.258-.125-.58-.394-.72-.465-1.199-.333-2.237.113-.884.075-1.27-.163-1.68-.08-.135-.132-.21-.117-.165.014.045.067.265.117.49.117.525.08.841-.132 1.13-.153.207-.162.252-.19.866-.03.675-.124 1.048-.324 1.285-.068.08-.128.274-.166.536-.065.446-.156.62-.322.62-.178 0-.24-.309-.2-.99.024-.43.01-.724-.052-1.07a5.47 5.47 0 0 1-.08-.875 2.85 2.85 0 0 0-.05-.606 2.323 2.323 0 0 1-.063-.442l-.008-.233-.08.21c-.124.332-.154 1.017-.075 1.743.068.63.066.676-.033.847-.08.137-.142.185-.26.196-.23.023-.394-.093-.62-.436-.22-.332-.343-.423-.635-.47-.461-.074-.578-.262-.522-.84.037-.366.03-.398-.132-.677-.192-.332-.3-.88-.255-1.296l.028-.256-.113.28a2.804 2.804 0 0 0-.144.7c-.025.345-.01.482.092.79a2.18 2.18 0 0 1-.108 1.644c-.1.212-.195.375-.21.363-.013-.01.004-.197.04-.412.086-.5.03-.685-.315-1.038-.292-.3-.275-.206-.228-1.283l.022-.494c-.646-1.388.252.337-.633.131.414.747-.01 1.44-.632 1.982l-.285.248.21.174c.34.28.387.61.116.816-.058.045-.254.11-.434.143-.308.06-.344.08-.584.35a3.07 3.07 0 0 1-.374.37c-.114.08-.115.095-.053.572l.064.491-.281.38c-.766 1.032-1.215 1.851-1.417 2.588l-.13.477-.003-.317c-.008-.724.222-1.903.457-2.338.136-.25.137-.257.028-.257-.062 0-.103-.016-.09-.035.242-.4.28-.522.298-.943.018-.44.018-.442-.07-.27-.228.444-.543.137-.8-.779-.035-.128-.08-.61-.097-1.07-.034-.832-.035-.838-.11-.584-.042.141-.092.632-.11 1.092l-.034.835-.27-.253c-.148-.139-.254-.21-.235-.158.08.212.135.804.094.99-.06.27-.19.383-.448.383-.376 0-.595-.38-.537-.932.014-.137-.001-.163-.094-.164-.104 0-.11-.03-.11-.537.002-.474.017-.557.129-.717l.127-.18-.128.07a.93.93 0 0 0-.25.25c-.114.171-.151.32-.282 1.13-.033.203-.095.378-.151.431-.261.244-.832-.052-1.142-.59-.125-.219-.153-.233-.32-.157-.097.044-.107.031-.107-.135a.77.77 0 0 0-.137-.386c-.177-.262-.184-.65-.021-1.095.073-.199.116-.434.113-.622-.005-.279-.036-.356-.392-.955-.482-.812-.58-1.115-.54-1.678.223-1.286-.198.673-.518.238.067.718.159 1.077.375 1.463.155.276.18.646.063.897-.073.155-.084.156-.213.023-.083-.086-.115-.094-.174-.045-.113.094-.126.978-.024 1.645.048.318.102.777.12 1.02.028.4.023.435-.052.357-.1-.104-.336-.928-.422-1.47a5.959 5.959 0 0 1-.048-.893c.012-.48.008-.505-.133-.646-.34-.34-.464-1.105-.372-2.27-.201-1.49-1.328 4.714-1.33-.113l-.021.461-.37.622c-.46.775-.56 1.108-.52 1.74.033.514.164.915.435 1.325l.168.253-.158-.085c-.26-.138-.397-.26-.508-.452l-.106-.18-.034.146c-.064.271-.035 1.461.05 2.04.109.745.305 1.513.508 1.994.09.21.14.372.114.358-.105-.055-.431-.68-.618-1.184-.273-.74-.37-1.262-.36-1.956.005-.32-.02-.695-.054-.833-.09-.368-.075-.622.053-.935l.113-.277-.112-.13a2.632 2.632 0 0 1-.263-.434c-.132-.267-.15-.365-.152-.838-.001-.295.018-.589.044-.653.032-.078.03-.1-.008-.07-.03.026-.1.152-.152.28-.076.182-.102.432-.118 1.142-.025 1.05-.034 1.101-.187 1.142-.333.09-.551-.619-.358-1.166.018-.05-.017-.007-.077.098-.17.294-.29.995-.292 1.673 0 .553.02.676.232 1.42.239.837.302 1.416.182 1.676-.045.098-.058.073-.091-.18a4.114 4.114 0 0 0-.175-.673c-.226-.633-.403-1.327-.446-1.75l-.041-.4-.042.256c-.05.31.02 1.005.173 1.698.144.655.14.767-.03 1.24-.166.461-.156.708.06 1.425.075.25.125.461.113.472-.046.04-.253-.364-.368-.719-.123-.38-.151-.837-.104-1.693.023-.419.017-.453-.122-.63-.36-.457-.342-1.515.046-2.655l.032-.093-.088.093c-.155.165-.312.681-.395 1.304-.11.812-.16.997-.388 1.44-.27.524-.29.798-.111 1.488.172.665.177.92.03 1.747-.167.938-.365 1.593-.672 2.221-.455.934-.588 1.26-.696 1.712l-.103.431-.043-.278c-.06-.385.042-.886.28-1.37.4-.818.416-.869.474-1.706.088-1.258.075-2.344-.035-3.002-.184-1.093-.03-2.637.384-3.835.077-.224.36-.884.628-1.468.269-.583.52-1.172.558-1.31-1.186 1.06-.911.852-1.466 2.463-.048.141-.22.53-.38.862-.746 1.54-.837 1.933-.783 3.378.033.896.114 1.454.316 2.166.092.325.114.52.096.862-.025.496-.107.677-.414.915-.16.123-.196.192-.24.442-.1.583.142 1.87.444 2.37l.12.198-.26-.157a3.98 3.98 0 0 1-.522-.4l-.262-.242-.067.452c-.066.45-.383 1.37-.645 1.87a2.29 2.29 0 0 1-.434.521c-.257.228-.294.283-.254.376.06.14.256.223.523.224.55.002.84.486.615 1.026a1.126 1.126 0 0 0-.082.262c0 .127.379.063 1.029-.173.738-.268 1.35-.416 1.724-.415.322 0 1.158.114 1.539.21.179.046.34.123.412.2.3.315.922.79 1.19.911.162.074.423.163.58.198.296.066.863.088.863.033 0-.018-.052-.079-.116-.136l-.116-.104.213.024c.208.023.23.01 1.095-.64.918-.69 1.29-.889 1.783-.949.305-.037.275 0-.253.312-.564.334-1.09.815-1.294 1.181-.09.16-.21.498-.268.75-.06.25-.143.522-.186.603-.152.283-.5.262-1.064-.064-.35-.202-.398-.216-.76-.224-.53-.01-.914-.186-1.117-.508-.048-.076-.11-.088-.417-.078-.662.02-1.01-.266-1.1-.904-.018-.134-.022-.13-.096.07a1.876 1.876 0 0 0-.08.512c-.003.26.023.342.178.574.147.22.162.261.075.222-.185-.084-.39-.326-.424-.506-.064-.324-.107-.314-.124.03-.018.37-.027.35.422 1.038.308.473.5 1.116.542 1.816.028.45.017.58-.064.77-.094.222-.094.244.02.752.17.744.543 1.67.64 1.585.012-.009-.03-.225-.091-.48a4.473 4.473 0 0 1-.116-.955c-.003-.483 0-.5.337-1.305.187-.448.34-.874.34-.946 0-.072-.052-.233-.115-.357-.141-.276-.124-.406.07-.528l.15-.094.187.121.187.121-.025-.113a.533.533 0 0 1 .01-.235c.036-.12.05-.112.462.262.504.456.589.56.73.903.263.63.26 1.29-.006 2.153-.201.653-.137.827.328.884.14.017.288.053.328.08.122.082.229.295.278.554l.046.247.124-.225c.077-.14.14-.38.169-.635.044-.402.134-.629.293-.74.068-.048.086-.016.118.201.06.414.292 1.08.507 1.463.198.351.199.357.154.75-.025.22-.046.66-.047.98 0 .566.005.598.234 1.15.25.604.39 1.087.4 1.39l.008.185.079-.256c.06-.197.07-.44.046-1.048-.032-.79-.032-.793.136-1.225.187-.483.205-.705.086-1.082-.071-.224-.071-.308 0-.679.043-.232.104-.693.134-1.025.068-.763.258-1.223.614-1.487.125-.093.125-.093.085 0-.43.98-.503 1.313-.33 1.474.058.054.088.16.085.302a.493.493 0 0 0 .117.362c.14.168.168.607.05.845-.082.168-.012.362.419 1.164.15.281.302.596.335.698.033.103.072.753.085 1.445.027 1.416.099 1.9.165 1.118.066-.776.142-1.343.34-2.563.105-.64.207-1.349.226-1.574.035-.396.03-.413-.107-.535-.3-.264-.482-.847-.398-1.267.037-.187.042-.19.144-.113.058.044.114.071.124.06.028-.027.356-2.098.453-2.86.122-.958.164-2.396.082-2.806-.06-.299-.091-.353-.284-.5-.124-.096-.274-.165-.352-.165-.124 0-.134-.015-.105-.152.064-.31.419-1.424.582-1.829.238-.59.36-.78.477-.748.083.023.105-.03.162-.383.076-.47.362-1.465.496-1.722l.09-.175.038.163c.02.09.04.14.044.11.003-.03.078-.117.165-.196.115-.104.19-.135.278-.115.136.03.357.258.42.43l.04.114.064-.13c.059-.122.075-.09.239.455.096.323.24.702.319.843.146.26.133.408-.04.457-.047.013.022.183.22.538.59 1.062.58 1.03.59 2.083.006.514.037.995.07 1.072.032.077.077.182.1.233.092.206-.388-.253-.804-.769-.237-.295-.51-.598-.604-.675l-.172-.138.09.185c.05.102.14.27.2.372.106.18.098.177-.242-.117-.192-.166-.47-.418-.616-.559-.227-.22-.251-.233-.167-.093a.91.91 0 0 1 .1.403c0 .23-.012.252-.33.54-.524.472-.613.7-.408 1.04.368.61.442 1.107.307 2.063-.11.786-.112 1.615-.003 2.006.122.434.056.404-.108-.05-.18-.496-.326-1.303-.286-1.576.019-.122.01-.18-.014-.14-.135.205-.308 2.201-.25 2.866l.038.42.267.218c.204.167.275.264.303.41l.036.19.128-.159c.14-.174.232-.218.455-.216.338.001.41.156.457.977.02.372.105 1.074.187 1.561.125.75.14.964.105 1.398-.022.282-.043.925-.046 1.428-.003.782.007.91.073.862.118-.082.219-.318.359-.84.07-.262.156-.522.192-.578.089-.14.259-.21.379-.156.09.04.094.007.06-.523a9.894 9.894 0 0 0-.101-.939c-.133-.724.016-1.688.373-2.429.15-.309.157-.355.11-.652-.027-.176-.095-.385-.15-.464-.096-.14-.096-.16 0-.594.214-.95.196-1.352-.087-1.987-.077-.173-.09-.324-.067-.854.016-.388.05-.664.088-.696.047-.04.063.026.063.256 0 .341.065.535.214.641.077.055.113.198.165.661.068.612.177 1.014.303 1.12.04.034.09.226.112.427.053.496.166.724.374.76.183.03.29.181.478.666.156.405.298.937.259.97-.018.015-.07-.02-.117-.076-.082-.098-.23-.15-.16-.055.087.12.137.93.082 1.346-.066.502-.01.64.277.688a.494.494 0 0 1 .213.08c.122.125.23.594.224.967-.003.214.023.463.06.553.085.215.13 1.83.065 2.306-.052.375-.05.44.01.358zm2.86-16.199c-.477-.095-.752-.223-.894-.417-.134-.183-.787-.702-1.046-.83l-.168-.085.055.122c.079.176.03.21-.31.21-.167 0-.377.031-.468.071-.16.07-.173.067-.37-.067-.266-.18-1.035-.85-1.317-1.147-.278-.293-.697-.817-.67-.839.01-.01.145-.023.299-.03l.279-.015-.343-.42c-.857-1.05-1.186-2.05-.94-2.866.117-.392.232-.52.544-.605.159-.044.277-.11.312-.174.28-.517 2.2-.86 4.418-.787 1.803.06 2.126.156 3.015.91.299.251.574.466.612.476.228.058.327 1.55.157 2.37-.193.936-.608 1.87-1.05 2.357-.146.163-.197.265-.197.397 0 .164-.017.183-.242.267-.254.096-.31.18-.392.588-.044.217-.216.52-.316.553-.141.048-.63.028-.97-.039zm-15.514-.302c-.115-.03-.097-.039.11-.043.39-.008.903-.128 1.33-.31.215-.09.383-.173.372-.182-.011-.009-.206.038-.433.104-.355.104-.512.121-1.104.124-.412.002-.805-.02-.98-.06-.271-.058-.29-.07-.29-.209 0-.13-.036-.164-.343-.31-.413-.195-1.286-.91-1.505-1.229a2.53 2.53 0 0 1-.45-1.24c-.016-.218-.005-.448.024-.51l.053-.116.093.167c.099.176.398.446.448.404.016-.013 0-.137-.035-.275-.08-.31-.033-1.08.087-1.464.125-.4.297-.758.486-1.015.156-.21.17-.219.266-.146.055.043.212.088.348.101.236.022.263.012.568-.218a6.154 6.154 0 0 1 2.054-.997c.367-.105.42-.11.53-.048.106.058.247.06.97.015 1.003-.063 1.529-.03 2.084.125 1.055.296 1.766.87 1.77 1.43 0 .173.003.175.124.104.179-.106.412-.093.489.028.127.2-.076.89-.52 1.763-.33.65-.475.837-.807 1.032-.163.095-.47.295-.682.444-.323.227-.366.273-.267.286.066.008.12.038.12.067 0 .03-.127.214-.28.412-.7.898-1.885 1.531-3.27 1.743-.441.068-1.15.08-1.36.023zm7.44 13.46c.01-.19.16-.508.319-.684.137-.153.142-.177.106-.55-.034-.353-.053-.403-.207-.533l-.17-.144.027-.557c.014-.306.02-.556.01-.556-.036 0-.36.893-.436 1.203-.127.513-.114.7.05.753.143.046.144.047.244.816.026.205.052.318.056.25zM28.44 27.71c.127-.163.247-.483.345-.918.069-.302.094-.753.107-1.877.014-1.375.024-1.495.13-1.696l.113-.217-.22-.284c-.28-.364-.43-.655-.46-.89a1.001 1.001 0 0 0-.093-.31c-.123-.219-.026-.353.66-.92.824-.68.887-.83.44-1.05-.182-.09-.183-.09-.137 0 .026.05.058.165.07.255.023.157-.008.192-.616.707-.716.606-.921.894-.956 1.342-.022.292.126.56.31.56.077 0 .113.04.133.15.015.084.092.3.17.478.162.368.192.81.07 1.008-.068.108-.065.13.022.193.29.21.147 2.815-.193 3.493-.058.116.008.101.106-.024zm-23.383-.298c-.057-.16-.044-3.365.015-3.65.042-.206.036-.283-.034-.396-.135-.219-.156-.855-.04-1.22.114-.35.09-.906-.052-1.296-.08-.217-.08-.237.01-.303.089-.062.09-.088.024-.256-.145-.366.04-.757.44-.923.205-.085.087-.107-.157-.029-.292.093-.68.502-.68.717 0 .115-.094.083-.132-.045l-.035-.117-.211.091c-.258.111-.546.38-.59.552a2.69 2.69 0 0 1-.055.187c-.011.032.036.078.106.1.113.037.133.082.16.37.034.33.188.708.319.776.053.028.062-.006.035-.146-.033-.177.03-.35.104-.287.083.07.193.602.226 1.1.032.467.05.543.162.636l.126.107-.003 1.53c-.003 1.196.016 1.638.086 2.018.05.268.118.51.15.536.045.035.052.02.026-.052z" style="stroke-width:1"/></symbol>
        <symbol id="grappled" viewBox="0 0 33.867 33.867"><path d="M13.559 33.77a16.329 16.329 0 0 1-1.644-.414c-1.553-.491-1.49-.036-.765-5.435l.639-4.758-3.17-4.75C5.075 14.56 4.39 11.527 10.235 4.997c.113 0 1.16.43 2.325.957a131.47 131.47 0 0 0 3.27 1.428c1.7.695 1.783.793 1.662 1.955-.055.533-.177 1.06-.27 1.174-.094.112-.902.298-1.796.412-1.911.243-2.333.132-3.343-.877-.35-.35-.671-.603-.713-.562-.041.042.068.452.243.913.357.94.282 1.1-.608 1.278-.285.057-.518.166-.518.242 0 .222.479.423 3.258 1.367 4.175 1.418 5.48 2.076 6.938 3.495.68.663 1.357 1.205 1.503 1.205.147 0 1.023-.591 1.945-1.315.923-.723 1.718-1.315 1.767-1.315.14 0-.09 1.799-.363 2.836-.461 1.752-1.245 3.534-2.15 4.884l-.897 1.343v8.327l-.677.27c-.373.15-1.131.384-1.685.52-1.187.292-5.425.445-6.567.236zm7.778-17.53c-.362-.328-.658-.694-.658-.815 0-.34 4.646-5.222 4.942-5.331 1.64-.61 2.906 1.704 2.097 2.363-.075.32-5.13 4.377-5.455 4.377-.147 0-.564-.268-.926-.595zm-3.083-2.218c-.655-.366-1.191-.74-1.191-.831 0-.313 5.055-6.408 5.263-6.55 1.187-.807 3.243 1.428 2.463 2.427-.196.25-4.801 5.629-5.085 5.625-.142-.002-.794-.304-1.45-.67zm-4.063-1.48c-1.508-.568-1.664-.662-.88-.535.309.05 1.193-.027 1.964-.171 1.688-.316 1.79-.32 1.78-.057-.01.203-1.245 1.282-1.45 1.264-.057-.005-.694-.23-1.414-.502zm4.13-3.604c.124-1.178-.101-1.513-1.433-2.137-.478-.224-.791-.47-.747-.585.043-.11.487-.836.989-1.614.674-1.045 1.002-1.413 1.26-1.413.206 0 .993-.81 2.369.696 1.12 1.226.716 1.84.554 2.143-.222.416-2.923 3.9-3.023 3.9-.04 0-.025-.445.032-.99zm-5.156-3.746c-1.676-.752-1.79-.856-1.501-1.382.556-1.013 2.578-3.456 2.793-3.57 1.969-1.045 3.623 1.622 2.934 2.293-.06.06-.468.84-1.04 1.679-.795 1.165-1.134 1.532-1.438 1.555-.22.017-1.006-.242-1.748-.575z" style="stroke-width:1"/></symbol>
        <symbol id="incapacitated" viewBox="0 0 33.867 33.867"><path d="M17.212.002a16.795 16.795 0 0 0-3.551.325c-3.435.686-6.38 2.293-8.862 4.835-6.09 6.237-6.423 16.021-.775 22.75 2.66 3.168 6.622 5.312 10.813 5.85.943.121 2.98.14 3.931.038 3.74-.406 7.373-2.13 10.045-4.765 2.774-2.736 4.497-6.255 4.974-10.161.131-1.076.096-3.164-.073-4.32-.435-2.975-1.514-5.524-3.39-8.012-.61-.808-2.284-2.463-3.13-3.093-2.967-2.21-6.438-3.392-9.982-3.447Zm-.26 3.319c.877 0 1.755.032 2.125.098 1.45.255 2.86.718 4.078 1.338.684.349 2.1 1.252 2.19 1.4.023.037-1.5 1.475-3.603 3.584 1.058 1.114 1.76 2.05 1.944 2.596l4.007-3.873.33.466c.572.806.87 1.31 1.271 2.144 2.066 4.3 1.7 9.434-.96 13.44-.256.386-.51.738-.566.784-.076.064-.328-.25-3.43-3.35.042.208.106.362.206.527-.055.091-.093.077-.153.136-.056.055-1.141.811-2.342 1.548l3.335 3.547-.281.222c-.917.723-2.617 1.603-3.913 2.027-.963.314-2.099.537-3.206.629-.947.079-1.194.078-2.223-.007a14.042 14.042 0 0 1-4.841-1.356c-.878-.437-2.382-1.4-2.382-1.524 0-.041 1.27-1.695 3.445-3.872-.982-.61-1.795-1.124-1.844-1.172-.066-.065-.003-.226.157-.487.209-.336.267-.628.277-1.395l-.642.642c-2.314 2.315-3.715 3.974-3.735 3.973-.071-.003-.793-1.066-1.161-1.713-.737-1.29-1.314-2.915-1.587-4.47-.064-.363-.135-1.17-.158-1.793-.085-2.322.37-4.431 1.413-6.55.389-.79 1.312-2.236 1.456-2.282.04-.013 1.8 1.636 4.115 3.95.69.65.534.4.697.144-.083-.346.55-1.302 1.595-2.463-2.099-2.121-4.02-4.025-3.999-4.059.111-.179 1.66-1.146 2.417-1.508 1.268-.607 2.376-.959 3.848-1.222.366-.065 1.243-.099 2.12-.1zm.418 3.31c-.03 0-.395.205-.813.456-.58.35-.706.478-.535.543.199.077.223.358.223 2.541 0 2.1-.03 2.49-.218 2.698-.12.133-.27.241-.331.241s-.112-1.13-.112-2.512c0-3.126.047-3.1-1.964-1.09-1.566 1.564-2.587 2.962-2.482 3.398.252 1.045.255 1.081.05.8-.051 3.405-.147 3.344-.101 5.37v1.202c0 .994-.049 1.28-.281 1.655-.16.26-.231.505-.165.57.063.062 1.276.828 2.694 1.701 1.419.872 2.618 1.59 2.664 1.595.046.005.121-1.554.168-3.463.046-1.91.119-3.933.161-4.497l.077-1.025h-1.208c-.905 0-1.294-.055-1.545-.22-.337-.22-1.107-1.422-1.109-1.731 0-.124.43-.165 1.718-.165 1.568 0 1.72-.021 1.72-.238 0-.132.07-.31.156-.394.119-.12.276.047.674.71.285.477.55.835.59.795.04-.04.29-.429.559-.865.373-.608.525-.758.643-.64a.636.636 0 0 1 .155.393c0 .217.153.239 1.729.239h1.728l-.092.298c-.168.546-.432.97-.867 1.396-.424.414-.455.422-1.679.422H18.33l.08 1.356c.043.745.117 2.769.164 4.497.047 1.728.108 3.14.134 3.14.075 0 5.258-3.174 5.383-3.296.06-.059-.015-.308-.165-.554-.223-.366-.273-.669-.273-1.66v-1.212c-.227-2.36-.204-2.208-.21-5.478.042-.2.111-.5.151-.668.115-.472-.85-1.809-2.474-3.432-2.011-2.01-1.965-2.035-1.965 1.09 0 1.383-.04 2.513-.088 2.513-.049 0-.198-.098-.33-.218-.218-.198-.243-.464-.243-2.697 0-2.206.025-2.488.224-2.565.171-.065.045-.192-.535-.542-.418-.252-.784-.458-.813-.458z" style="stroke-width:1"/></symbol>
        <symbol id="invisible" viewBox="0 0 33.867 33.867"><path d="M17.141 3.219c-.323 0-3.717 2.807-5.264 4.353-3.68 3.681-6.087 7.994-6.555 11.749l-.129 1.038 4 2.333c2.2 1.283 4.033 2.335 4.073 2.337.146.01-2.05-2.42-3.277-3.624-1.495-1.469-2.525-2.557-1.661-5.04.999-2.87 4.421-5.11 7.617-7.576 1.311-1.011 1.176-1.047 3.569.945 2.61 2.175 5.873 5.217 6.783 7.932.826 2.464-.423 2.1-3.079 4.948-2.277 2.44-2.31 2.488-1.277 1.89l4.11-2.379 3.048-1.766-.134-1.038c-.489-3.777-2.916-8.15-6.517-11.745-1.483-1.48-4.988-4.357-5.307-4.357Zm-3.422 13.275c-.537.016-1.06.28-1.514.79-.348.392-.348.426 0 .727.201.174.552.42.78.547.567.314 1.057.298 1.74-.055.984-.509 1.125-.82.595-1.317-.512-.48-1.064-.71-1.6-.693zm6.44 0c-.536.016-1.059.28-1.513.79-.349.392-.349.426 0 .727.2.174.552.42.78.547.567.314 1.057.298 1.74-.055.984-.509 1.125-.82.595-1.317-.512-.48-1.064-.71-1.601-.693Zm-14.283 6.81L2.938 26.06C1.322 27.576 0 28.852 0 28.896c.495 1.977 3.251-.335 6.495.794.028-.027.704.175 1.504.447 1.488.508 4.268.677 5.19.317.338-.132.22-.224-.662-.517-2.456-.816-5.05-3.106-6.074-5.362zm21.972.068c-.118 0-.215.143-.215.318 0 .683-1.142 2.52-2.265 3.643-.834.834-1.737 1.451-3.095 2.115-2.161 1.056-2.108 1.189.478 1.192 1.622.002 2.638-.23 4.1-.936.545-.262.99-.432.99-.377 4.164.652 5.03.714 6.025-.431 0-.181-5.82-5.524-6.018-5.524z" style="stroke-width:.338662;stroke-miterlimit:4;stroke-dasharray:none;"/></symbol>
        <symbol id="paralyzed" viewBox="0 0 33.867 33.867"><path d="m7.105.069.199.423c.109.232.29.516.403.63.113.114.26.373.329.575.098.29.226.426.608.64.439.248.521.361.873 1.208l.388.935-.386.65-.386.65.802.725c.673.607.793.764.745.974-.043.189-.132.267-.358.317-.178.038-.262.1-.207.153.052.048-.01.184-.133.302-.186.176-.296.17-.606-.03a4.682 4.682 0 0 1-.756-.666c-.31-.344-.383-.38-.4-.203-.015.15.12.319.45.561.374.274.484.428.524.735.027.214.175.506.328.65.26.244.275.243.235-.03a2.187 2.187 0 0 0-.103-.427c-.039-.09.019-.123.168-.098.257.044 1.221-.719 1.17-.925-.018-.072.114-.134.293-.139 1.779-.048 2.366-.404 2.326-1.41-.016-.385.003-.418.157-.273.097.09.508.186.914.21l.739.045.354-.585.355-.586.238.329c.196.272.329.326.774.317.364-.007.575-.081.656-.23.1-.184.217-.172.69.069.474.24.715.264 1.43.144.474-.08.952-.168 1.06-.196.15-.038.199.146.199.748 0 .44.092.934.204 1.097.112.164.256.469.321.677.179.57.582.724 1.404.539l.717-.162.491.612c.41.51.546.616.812.628.298.014.34.066.637.776.175.418.438.874.585 1.013.231.22.233.313.008.708-.337.592-.318.694.269 1.391l.494.587.55-.197c.479-.171.63-.157 1.152.111.33.17.628.334.662.366.033.032-.059.267-.205.523-.303.533-.308 1.146-.015 1.827l.203.47-.408.013c-.32.01-.459.085-.637.348-.124.184-.192.407-.15.496.041.088-.003.315-.1.504-.156.307-.133.384.218.722.348.333.36.373.11.341-.403-.052-.49.083-.372.58.09.382.071.432-.159.412-.192-.017-.438.143-.925.604l-.663.628.172.46.172.46-.525.043c-.29.023-.575.125-.635.225a2.585 2.585 0 0 0-.14.27c-.588-.034-1.844.96-2.61 1.07a3.043 3.043 0 0 1-.253.706c-.095.174-.137.674-.093 1.112.061.598.03.788-.122.764a23.298 23.298 0 0 0-1.073-.088c-.725-.047-.962 0-1.41.288-.446.287-.56.31-.678.138-.097-.14-.314-.193-.677-.164-.444.036-.57.103-.738.394l-.203.35-.412-.546-.412-.547-.73.12c-.403.064-.802.2-.889.3-.138.16-.16.129-.184-.256-.06-1.004-.68-1.3-2.456-1.17-.178.014-.316-.034-.305-.107.03-.21-1.005-.872-1.257-.803a1.776 1.776 0 0 0-.36.025c.117-.21.214-.483.082-.615l-.275.372-.015-.582c-.014-.483-.088-.65-.439-.981-.263-.25-.518-.391-.675-.377-.352.03-.45-.099-.23-.306.144-.137.123-.233-.099-.442-.155-.147-.406-.302-.556-.345-.218-.063-.244-.108-.125-.22.255-.241-.49-.6-1.176-.566-.446.02-.635-.03-.715-.196-.146-.3-.096-.493.2-.777.136-.13.218-.338.18-.463-.06-.201-.034-.216.243-.136.17.048.326.023.346-.055.02-.08.165-.125.324-.101.277.04.31.005.784-.854.485-.878.642-1.557.41-1.776-.065-.061-.168-.313-.23-.56-.11-.446-.117-.45-.886-.84-.426-.214-.835-.45-.909-.525-.214-.213-.466-1.045-.34-1.125.062-.04.11-.38.105-.754-.005-.375.02-.707.054-.74.035-.034.194.013.351.102.369.209 1.683-.16 1.715-.48.014-.145.124-.252.362-.353.507-.215.508-.235.027-.623-.42-.34-.468-.345-.953-.115-.462.22-.575.213-1.215-.073-.387-.173-.93-.322-1.203-.331l-.499-.016-.385-.798c-.343-.71-.36-.833-.151-1.125.195-.273.188-.45-.042-1.067l-.275-.74.056.82c.043.643-.001.862-.208 1.015-.22.162-.232.287-.067.76.108.312.199.597.2.634.003.037-.428.079-.956.093-.87.023-1.018.068-1.565.484-.332.253-.8.532-1.038.62l-.435.158.372.073c.227.045.706-.068 1.23-.29.543-.23 1.107-.358 1.536-.352.673.011 2.089.448 2.397.739.23.217.384 1.73.195 1.91-.087.082-.421.143-.742.134-.677-.017-1.564-.583-1.525-.973.011-.121-.115-.336-.28-.48-.293-.25-.296-.25-.088.017.152.195.16.327.03.45-.166.158-.137.207.32.526.441.309.472.355.25.374-.167.015-.377.176-.613.47-.23.286-.42.435-.526.41-.092-.02-.212.007-.268.06-.055.052.041.102.215.11.229.01.4-.084.611-.337.259-.31.393-.353 1.1-.36.943-.007 1.434.248 1.638.855.177.525-.076.954-.578.983l-.367.022.417.085c.284.059.495.011.663-.148.227-.214.312-.198 1.014.187.823.45.806.425 1.037 1.578.044.215-.748 1.396-1.05 1.567-.255.145-.315.123-.574-.21-.23-.297-.39-.383-.779-.421-.447-.044-.5-.08-.61-.406-.118-.352-.133-.355-.958-.197-.906.173-.934.163-1.334-.502-.273-.453-.287-1.362-.03-1.83.11-.2.09-.2-.135-.002-.147.129-.366.522-.488.874-.193.557-.184.692.07 1.029.58.773.438.99-.391.595-.602-.287-.72-.28-1.366.072a31.458 31.458 0 0 1-.708.378c-.113.056.18 0 .65-.126.798-.213.897-.205 1.48.108.56.303.708.319 1.47.16.936-.194 1.285-.184 1.535.044.384.35-.358.804-.8.49-.165-.117-.313-.109-.49.029-.248.195-.247.196.054.103.168-.052.402-.027.521.057.12.083.414.086.662.005.348-.114.493-.094.65.091.163.19.145.34-.087.748-.323.567-.783.85-1.594.984-.426.07-.442.086-.735.673l-.299.6-.398-.056c-.974-.138-1.008-.106-.174.167.49.16.917.293.948.295.03.001.191-.265.356-.592.283-.563.325-.604.784-.757.384-.13.537-.112.738.08.449.428.566.74.431 1.141-.176.522-.032.497.34-.06.352-.524.894-.823 1.29-.71.42.121.47.246.204.503-.214.208-.214.234.005.18.318-.08.532.108.413.361-.05.105-.31.399-.577.652-.464.44-.516.456-1.084.346-.585-.112-.606-.105-1.119.403-.288.286-.64.565-.784.62-.171.067-.06.097.324.087.438-.011.673-.097.932-.34.29-.272.428-.308.855-.221.459.092.567.058 1.07-.345.727-.583 1.458-.636 1.978-.144.289.273.332.421.27.93-.041.333-.002.772.087.976.09.204.112.382.051.396-.062.014-.105.172-.095.35.011.218-.07.375-.243.473-.142.081-.242.216-.22.3.022.09.113.082.22-.02.1-.095.252-.14.338-.102.107.048.163-.069.176-.371.01-.243.068-.396.128-.34.199.188.275-.049.103-.32a.524.524 0 0 1-.048-.1c.054-.063.114-.13.192-.199.288-.23.397-.247.599-.092.135.105.209.234.163.288-.05.057.04.11.221.131.23.027.326.096.388.279.069.204-.035.373-.643 1.045l-.726.8.45.61.45.607-.292.97c-.265.877-.335 1-.747 1.289-.358.252-.473.4-.54.698-.048.208-.17.48-.27.605-.101.125-.253.425-.338.668l-.155.44.406-.455c.224-.25.519-.68.655-.954a1.9 1.9 0 0 1 .65-.768c.293-.198.478-.433.696-.885.384-.798.466-.884.676-.72.11.086.113.446.009.967-.092.457-.127.861-.078.898.049.038.145.162.215.277.09.146.11.078.067-.228-.033-.24.062-.766.21-1.167.247-.665.281-.71.387-.522.229.413.47.627.64.57.126-.042.096-.087-.104-.162-.186-.068-.295-.208-.327-.419-.039-.246-.208-.432-.764-.836-.55-.399-.77-.637-.951-1.032l-.237-.514.608-.703c.499-.577.67-.707.953-.722.444-.024.597.24.351.604-.106.158-.143.359-.08.447.09.128.11.117.097-.064-.01-.124.068-.322.17-.44.102-.119.164-.277.137-.352-.085-.237.073-.298.478-.185.347.097.411.172.571.668.214.66.16 1.806-.11 2.302l-.19.353.435-.354c.346-.282.432-.42.42-.67-.02-.395.641-1 1.211-1.11.338-.065.432-.022.829.378.412.415.432.48.254.803a4.696 4.696 0 0 0-.337.914c-.11.442-.193.574-.378.61-.37.07-.53.66-.237.872l.234.17-.135-.278c-.124-.254-.091-.318.392-.766.29-.27.564-.495.608-.502.043-.007.124.114.179.269.055.155.14.278.191.273.05-.005.008-.249-.094-.54-.157-.45-.131-.661.162-1.368l.346-.836.363.011a.834.834 0 0 1 .619.3c.14.159.255.296.253.304-.002.008-.232.45-.512.982l-.51.969.328.732c.18.403.284.785.23.848a.27.27 0 0 0-.053.24c.025.071.102.003.179-.16.074-.156.06-.586-.03-.956-.159-.65-.146-.702.404-1.662l.567-.991.777-.282c.92-.334 1.815-.218 2.426.314.36.313.37.375.208 1.277-.133.738-.12.989.06 1.127.127.098.23.286.231.418.001.376.163.408.264.053a.557.557 0 0 0-.147-.554c-.193-.188-.195-.395-.013-1.098.172-.664.29-.903.505-1.022.408-.224.408-.224-.117-.517-.81-.453-1.507-2.085-1.094-2.563.084-.098.172-.333.194-.524.06-.521.49-.753 1.214-.653.563.079.633.118.775.431.2.442.6.685.883.538.18-.093.244-.066.336.146.083.19.188.27.382.29.244.024.246.019.027-.063a.501.501 0 0 1-.285-.377c-.041-.265-.082-.284-.52-.24-.452.046-.484.03-.645-.324.022-.077.04-.15.057-.219.093-.026.203-.078.33-.162a75.3 75.3 0 0 1 .252-.59c.094-.211 1.012-.351 1.192-.18.094.088.263.564.375 1.055.166.735.297.997.73 1.473l.528.58-.292-.543c-.188-.348-.247-.627-.165-.777.07-.128.152-.229.181-.224.764.131 1.727.259 1.754.232.02-.019-.437-.13-1.017-.248l-1.052-.213-.395-1.117c-.39-1.1-.391-1.124-.065-1.73.242-.45.398-.63.583-.67.304-.066 1.066.473 1.385.978.13.205.327.382.47.42.278.075.267.061-.83-.986-.751-.716-.872-1.136-.374-1.289.612-.188.971-.055 1.691.622.532.5.796.667 1.196.757.45.1.55.073.825-.228.172-.188.394-.36.493-.382.121-.027.116-.068-.017-.124-.131-.055-.318.03-.551.25-.29.274-.44.32-.842.256-.464-.074-.518-.115-1.003-.774-.283-.383-.684-.806-.892-.941-.309-.2-.386-.335-.423-.739-.025-.272.036-.653.135-.847.158-.308.223-.344.516-.286.184.037.563.264.84.504.562.486.635.465.981-.272l.198-.423-.296.266c-.338.305-.554.231-1.25-.423-.269-.253-.42-.491-.405-.642a.6.6 0 0 0-.177-.43c-.11-.104-.247-.475-.303-.825-.093-.572-.063-.672.286-1.002.328-.311.492-.365 1.064-.353.372.008.881.113 1.131.236.25.122.528.205.618.185.111-.024.083-.068-.086-.133a3.873 3.873 0 0 1-.503-.251c-.24-.146-.225-.18.292-.67.539-.51 1.31-1.799 1.04-1.738-.077.017-.272.264-.433.547-.188.331-.523.699-.933 1.023-.529.419-.756.518-1.312.569-.581.053-.776-.001-1.44-.4-.642-.386-.828-.44-1.14-.337-.343.115-.414.084-.918-.393-.51-.481-.537-.541-.417-.9.123-.365.147-.38.508-.309l.379.075.175-.511c.149-.434.203-.499.362-.432.104.044.261.01.35-.073.141-.134.11-.153-.247-.153-.398 0-.412.01-.521.41l-.112.412-.417-.126c-.633-.19-.872-.495-1.147-1.46-.242-.848-.237-.905.122-1.411.859-1.21.946-1.303 1.246-1.325.57-.041.713-.14.234-.164-.468-.023-.508.001-1.074.641a46.2 46.2 0 0 0-.964 1.125l-.375.46-.48-.335c-.7-.49-.95-.926-.797-1.385.125-.37.154-.388.609-.388.44 0 .48-.023.493-.29.01-.167.114-.34.246-.405.21-.103.207-.108-.034-.059-.19.04-.287.13-.35.327-.07.22-.13.254-.32.179-.297-.118-.669.164-.824.624-.11.326-.175.371-.728.506-.709.172-1.16-.014-1.274-.527-.041-.187-.151-.413-.245-.502-.459-.434.07-2.127.831-2.659.492-.344.492-.345.064-.527-.226-.096-.368-.323-.605-.965-.252-.682-.27-.888-.097-1.095a.557.557 0 0 0 .09-.565c-.136-.344-.294-.296-.257.078.013.132-.072.33-.188.44-.165.156-.153.406.053 1.126.253.881.249.945-.078 1.293-.555.59-1.433.796-2.383.556l-.8-.203-.665-.928c-.643-.9-.661-.95-.568-1.614.052-.376.022-.805-.067-.954-.093-.153-.177-.214-.195-.14-.018.07.017.176.078.233.06.057-.004.447-.143.866l-.253.762.604.912a77.708 77.708 0 0 1 .608.926c.003.008-.097.156-.22.328a.835.835 0 0 1-.586.36l-.36.048-.43-.797c-.362-.674-.408-.881-.297-1.344.072-.3.089-.547.038-.547-.05 0-.123.13-.162.29-.04.16-.107.29-.151.287-.044-.003-.339-.2-.655-.439-.526-.397-.566-.458-.468-.723l.107-.29-.216.192c-.27.241-.051.812.323.845.188.017.283.14.438.568.109.3.301.695.427.877.21.303.196.369-.172.823-.355.439-.444.491-.786.46-.578-.051-1.296-.587-1.317-.981-.013-.251-.113-.38-.485-.625l-.469-.31.226.333c.317.466.487 1.6.34 2.28-.109.508-.166.59-.501.721-.391.154-.555.109-.494-.136.019-.077-.058-.228-.172-.336-.114-.108-.21-.296-.213-.42-.006-.182-.026-.192-.103-.055-.054.094.002.29.124.437.282.338.156.615-.289.636-.282.014-.465-.098-1.02-.622l-.675-.64.183-.534c.141-.411.336-.67.843-1.123.512-.457.663-.66.676-.908a.49.49 0 0 1 .283-.45c.191-.094.216-.142.088-.171-.176-.04-.394.198-.581.631-.086.198-.124.156-.436-.48-.189-.385-.336-.897-.327-1.14.011-.308-.015-.375-.09-.22-.057.12-.141.254-.186.296-.044.042.031.441.168.886.156.509.19.866.089.963-.193.185-.283.107-.746-.648-.261-.427-.469-.643-.782-.81a1.903 1.903 0 0 1-.722-.699 5.294 5.294 0 0 0-.748-.883ZM17.369 6.63c-.029 0-.394.206-.812.458-.58.35-.706.477-.535.542.198.077.223.358.223 2.541 0 2.1-.031 2.491-.219 2.698-.12.133-.269.241-.33.241-.062 0-.112-1.13-.112-2.512 0-3.126.047-3.1-1.964-1.09-1.567 1.564-2.587 2.962-2.482 3.398.252 1.045.255 1.081.05.8-.051 3.405-.148 3.344-.101 5.37v1.202c0 .994-.049 1.28-.282 1.655-.16.26-.23.505-.165.57.064.062 1.277.828 2.695 1.701 1.418.872 2.618 1.59 2.664 1.595.046.005.121-1.553.168-3.463.046-1.91.119-3.933.16-4.497l.078-1.024h-1.208c-.905 0-1.294-.056-1.545-.22-.337-.222-1.107-1.423-1.109-1.732-.001-.124.43-.165 1.718-.165 1.568 0 1.72-.021 1.72-.238 0-.131.07-.31.156-.394.119-.12.276.047.673.71.286.477.551.835.59.795.04-.04.291-.429.56-.865.373-.608.525-.758.643-.64a.639.639 0 0 1 .155.394c0 .216.152.238 1.729.238h1.728l-.092.298c-.168.546-.432.97-.868 1.397-.423.413-.454.422-1.678.422H18.33l.08 1.355c.043.745.116 2.77.163 4.497.047 1.728.108 3.14.135 3.14.075 0 5.258-3.174 5.383-3.296.06-.059-.015-.308-.165-.554-.223-.366-.273-.669-.274-1.66v-1.212c-.227-2.36-.204-2.208-.21-5.478.043-.2.111-.5.152-.668.114-.472-.85-1.809-2.474-3.432-2.012-2.01-1.965-2.035-1.965 1.091 0 1.382-.04 2.512-.09 2.512-.047 0-.196-.098-.33-.218-.217-.198-.241-.464-.241-2.697 0-2.206.024-2.488.223-2.565.172-.065.046-.192-.535-.542-.418-.252-.783-.458-.812-.458zm-7.94 3.394a.079.079 0 0 0-.05.02c-.051.047-.033.143.04.212.073.07.2.111.282.093.082-.019.064-.114-.04-.213-.079-.074-.17-.116-.232-.112z" style="stroke:none;stroke-width:.177288;stroke-miterlimit:4;stroke-dasharray:.177288,.177288;stroke-dashoffset:0;"/></symbol>
        <symbol id="petrified" viewBox="0 0 33.867 33.867"><path d="M15.906 0c-.626-.006-.997.191-1.418.756-.223.298-.23.442-.26 6.38l-.03 6.074h3.38l-.056-6.11c-.041-4.595-.09-6.17-.193-6.352-.264-.46-.8-.742-1.423-.748zm-4.11 2.67c-.536.001-1.06.245-1.356.73-.205.337-.216.588-.216 5.082v4.728h3.326l-.032-4.728-.033-4.728-.257-.36a1.746 1.746 0 0 0-1.431-.724Zm8.21.034a1.67 1.67 0 0 0-1.49.8c-.21.345-.22.566-.22 5.02v4.658l.54.071c.603.08 1.752.612 2.063.956.112.124.273.2.358.166a.93.93 0 0 1 .255-.059c.06 0 .102-2.104.102-5.17 0-4.702-.018-5.205-.194-5.555a1.613 1.613 0 0 0-1.414-.887Zm-12.175 2.8c-.284-.007-.56.09-.893.292-.732.447-.748.537-.785 4.646-.03 3.415-.018 3.714.16 3.844.25.183.22.192.706-.194.568-.45 1.316-.768 1.994-.848l.559-.066-.034-3.219c-.04-3.712-.055-3.782-1.004-4.254-.258-.128-.483-.196-.703-.2zm.9 8.48-.664.32c-.791.378-1.28.864-1.626 1.616-.216.47-.247.734-.252 2.918a.57.57 0 0 1 .166.043.829.829 0 0 1 .197.144c.213.23.517.213.809-.045.138-.12.228-.168.327-.17a.4.4 0 0 0 .204-.054c.097-.077.362-.594.36-.703 0-.05-.05-.207-.11-.347-.061-.14-.103-.263-.092-.273.01-.01.073.068.14.173.112.175.135.19.25.167.167-.034.398-.229.5-.42.09-.17.145-.2.146-.078 0 .115-.13.267-.39.45-.232.164-.294.264-.33.538a.953.953 0 0 1-.13.324c-.065.103-.1.201-.083.247.014.042.146.244.293.45.186.26.3.38.38.4.06.017.19.09.284.164.165.13.175.132.275.065.136-.09.137-.09.143.045.01.186.1.99.125 1.087.016.067.112.122.39.224a7.4 7.4 0 0 0 .64.198c.327.077.403.162.273.304-.137.15-.192.332-.122.4.06.06.918.297 1.065.296.053 0 .155-.09.27-.237.162-.208.187-.226.215-.153a.279.279 0 0 0 .109.125c.07.038.066.046-.041.088a.737.737 0 0 1-.154.046c-.02 0-.111.09-.203.196l-.168.194.142.122c.227.194.617.406.906.492.326.097.302.097.3-.003-.001-.19.41-.236.716-.077.104.054.522.2.929.326.406.125.796.265.866.31.166.11.234.105.495-.03.36-.187.443-.267.64-.617a4.58 4.58 0 0 1 .429-.61c.166-.192.259-.346.308-.51.073-.24.069-.32-.03-.554-.062-.149-.013-.378.077-.36.057.011.065-.192.01-.276-.033-.052-.383-.172-.497-.17-.031 0-.126.107-.21.237-.168.26-.234.25-.103-.012.07-.142.078-.22.054-.583-.028-.425.033-1.144.103-1.216.023-.024.03.25.019.7-.021.83-.05.752.31.808.093.014.272.08.399.146.274.144.294.145.486.03.125-.077.187-.087.38-.065.215.024.234.02.266-.07a.52.52 0 0 0 0-.242c-.036-.15.008-.3.088-.3.052 0 .222-.387.26-.593.053-.274.068-.307.118-.257.062.06.32.054.447-.012.088-.046.153-.215.184-.453-1.122-.197-2.358-.132-3.05.194-.334.158-.767.421-.961.585-1.912 1.716-1.143.25-.657-.232.84-.93 2.436-1.463 3.927-1.312.227.023.502.066.783.118.007-.004.015-.002.026.005.528.1 1.07.233 1.357.343.145.055.17-.087.17-.98 0-.945-.033-1.11-.34-1.724-.402-.806-1.023-1.372-1.84-1.678-.562-.21-.857-.222-5.648-.222zm17.445 2.724c-.78.002-1.233.277-2.643 1.605-.876.824-1.358 1.2-1.536 1.2-.143 0-.285-.04-.317-.093-.032-.05-.445-.212-.92-.357a6.074 6.074 0 0 0-.591-.147c-.01.255-.04.514-.093.643-.022.054.027.06.333.044.39-.02.57.012.422.075a.997.997 0 0 1-.273.041c-.104.003-.26.026-.345.05-.135.04-.184.031-.368-.06a1.078 1.078 0 0 0-.265-.1c-.078.001-.404.794-.402.974a.533.533 0 0 0 .107.293c.057.078.168.244.246.37.22.353.453.57.672.623.294.071.49.164.617.294.174.178.352.222.58.141.158-.055.23-.058.455-.018.547.1 1.049.016 1.452-.237.125-.078.136-.104.134-.298-.003-.295.076-.46.346-.722.128-.124.232-.243.232-.265 0-.02.127-.194.282-.384.467-.57.48-.61.366-1.022-.05-.178-.045-.22.06-.517.17-.474.168-.46.069-.49-.106-.032-.178-.153-.22-.367-.043-.22.008-.196.086.04a.652.652 0 0 0 .623.444h.197l.074-.21c.04-.117.105-.236.144-.265.085-.064.476-.076.477-.016 0 .023-.083.043-.184.044-.215.003-.253.04-.354.346l-.075.227-.288.003-.288.003-.071.19c-.096.256-.09.516.014.716.047.09.086.192.087.227 0 .035-.102.217-.227.405-.125.19-.228.377-.227.42 0 .098.382.354.63.423.128.035.3.152.573.39.999-1.05 1.62-1.748 1.712-1.933.647-1.298-.038-2.734-1.303-2.73zM7.54 19.07a.088.088 0 0 0-.05.016c-.54.404-.734.644-.731.906 0 .07-.018.14-.04.154-.072.046-.054-.395.02-.525.038-.065.058-.146.045-.18-.03-.076-.326-.25-.597-.37l-.002.72c0 2.905.026 3.4.203 3.975.529 1.713.184 3.154 1.626 3.934.17.092.42 1.59.249 3.544a.292.292 0 0 0 .05-.108c.048-.212.118-.3.529-.657.278-.243.452-.362.582-.397.248-.07.629-.325.63-.423 0-.043-.101-.232-.227-.42-.125-.188-.227-.37-.227-.405 0-.035.04-.137.087-.228.105-.2.11-.459.014-.715l-.071-.19-.288-.003-.29-.003-.073-.227c-.102-.307-.14-.343-.354-.346-.101 0-.184-.02-.184-.044 0-.06.392-.048.476.015.04.03.104.15.145.265l.074.211h.197a.652.652 0 0 0 .623-.444c.078-.236.13-.26.086-.04-.042.214-.114.335-.22.367-.1.03-.1.016.068.49.106.298.11.338.06.516-.114.413-.1.453.367 1.023.155.19.282.362.282.384 0 .022.104.14.232.265.27.262.35.426.346.722-.002.194.009.22.134.298.403.253.905.335 1.452.237.225-.04.297-.037.455.018.228.08.406.037.58-.14.127-.13.323-.224.617-.296.219-.053.453-.27.672-.623a8.8 8.8 0 0 1 .246-.37.535.535 0 0 0 .107-.292c.002-.18-.324-.973-.402-.976a1.054 1.054 0 0 0-.265.103c-.184.09-.233.098-.368.06a1.67 1.67 0 0 0-.345-.05.997.997 0 0 1-.273-.042c-.15-.063.03-.095.422-.075.306.016.355.01.333-.045-.116-.285-.133-1.216-.023-1.304.056-.046.063-.013.06.258-.007.433.075.76.204.827.126.067.385.073.447.012.05-.049.065-.017.117.258.04.206.21.592.26.592.08 0 .125.151.09.3a.52.52 0 0 0 0 .242c.03.09.05.095.265.07.193-.022.255-.01.38.065.192.116.212.115.486-.03a1.7 1.7 0 0 1 .399-.146c.36-.056.33.022.31-.808-.011-.45-.004-.724.02-.7.07.073.13.792.102 1.217-.023.363-.016.44.054.582.13.263.065.272-.103.013-.084-.13-.18-.238-.21-.238-.114-.002-.464.12-.498.17-.054.084-.046.288.01.277.09-.018.14.21.078.36-.1.234-.103.314-.03.554.05.164.143.318.308.51.13.15.323.425.428.61.198.35.28.43.64.616.263.135.33.14.497.031.068-.044.44-.178.837-.3-.397-4.164-.297-4.42.287-5.143.662-.82 1.126-1.368 2.605-2.893.005-.173.112-.304.318-.383a1.29 1.29 0 0 0 .09-.038l.09-.09a.732.732 0 0 0 .017-.154c.008-.158-.036-.348-.17-.75-.1-.297-.2-.56-.22-.586-.021-.025-.124-.057-.228-.07a1.209 1.209 0 0 1-.325-.092c-.11-.055-.217-.063-.576-.04-.505.03-.593.008-.827-.21a1.05 1.05 0 0 0-.34-.21c-.62-.185-.642-.202-.881-.638-.22-.403-.265-.436-.49-.359-.15.052-.183.05-.28-.012-.064-.04-.144-.059-.193-.042-.074.024-.08.05-.054.223.03.2.004.212-.084.04-.04-.076-.085-.095-.25-.097-.181-.003-.205.008-.263.124-.047.093-.056.187-.035.344.02.152.005.336-.054.613-.073.345-.105.42-.252.582a2.222 2.222 0 0 0-.302.49c-.217.491-.217.477-.01.58.1.05.205.12.232.156.036.05.159.072.464.09.463.027.735.112 1.082.34.163.108.265.145.393.143.12 0 .196.024.25.083.08.085.079.086-.107.062-.334-.042-.378-.058-.675-.25-.24-.156-.345-.197-.578-.227-.346-.043-.456-.044-.63-.005-.108.024-.14.014-.18-.058-.06-.108-.26-.212-.404-.21-.18.002-.412.124-.55.29l-.13.156-.795-.152c-.786-.15-1.138-.246-1.563-.43-.2-.087-.233-.09-.414-.037l-.196.057.032.256.032.256-.108-.098c-.06-.054-.13-.09-.155-.08-.026.008-.12.188-.211.4-.121.282-.194.4-.277.442-.188.096-.26.176-.26.29a.53.53 0 0 1-.06.215c-.085.155-.072.3.046.467a9.1 9.1 0 0 1 .38.7c.25.5.267.55.187.55a.553.553 0 0 1-.204-.062c-.063-.034-.216-.207-.338-.384-.295-.429-.717-.843-.857-.842-.06.001-.26.078-.45.172l-.342.17-.164-.09c-.09-.05-.164-.106-.165-.124 0-.05.272-.04.325.013.036.035.122.004.334-.118.23-.133.328-.165.516-.169l.232-.004.04-.324c.043-.325.102-.456.206-.457.03 0 .105-.044.164-.097.14-.125.226-.616.13-.757-.032-.048-.267-.19-.522-.318-.428-.213-.464-.24-.477-.362a.39.39 0 0 0-.108-.215c-.095-.085-.815-.38-.926-.378-.033 0-.11.057-.17.125-.081.093-.16.132-.31.152l-.357.05c-.161.021-.258-.045-.157-.108.03-.02.174-.05.318-.067.233-.027.275-.047.368-.172.058-.077.124-.192.147-.254.068-.186.117-.659.076-.734-.021-.037-.218-.137-.437-.22a5.149 5.149 0 0 1-.648-.303 29.31 29.31 0 0 0-.428-.25.925.925 0 0 1-.206-.14c-.06-.096.032-.078.273.051.233.126.26.132.322.07.056-.058.059-.096.016-.26a.532.532 0 0 1-.003-.34c.033-.105.034-.174.003-.23-.05-.088-.426-.34-.508-.339-.123.001-.3-.138-.54-.422-.243-.29-.524-.49-.66-.485Zm17.08 1.946c-.072.007-.152.075-.324.264-.252.277-.274.325-.425.91a.58.58 0 0 1-.447.432.642.642 0 0 0-.211.066c-.084.067-.097.302-.03.54.05.18.073.482.069.726l.542-.552c.699-.708 1.31-1.337 1.833-1.886-.222-.157-.858-.486-.977-.5a.128.128 0 0 0-.03 0zm-8.592 9.065a.298.298 0 0 0-.151.05c-.097.061-.13.062-.28.011-.225-.077-.27-.044-.49.36-.24.435-.262.451-.882.636a1.05 1.05 0 0 0-.34.21c-.233.22-.32.241-.826.21-.36-.022-.466-.015-.576.04a1.14 1.14 0 0 1-.325.092c-.104.013-.207.045-.228.07-.021.026-.12.29-.22.586-.134.403-.178.593-.17.75.01.208.013.213.197.283.209.08.315.213.317.39.52.044 1.047.074 1.548.09.355.01.81.01 1.3.004 0-.01.02-.03.05-.064.054-.06.13-.084.25-.083.129.001.23-.036.394-.143.347-.228.62-.314 1.082-.34.305-.018.427-.042.464-.09a.85.85 0 0 1 .23-.156c.21-.104.21-.089-.008-.58a2.223 2.223 0 0 0-.302-.49c-.147-.163-.18-.237-.252-.582-.06-.277-.075-.46-.055-.613.022-.157.013-.25-.034-.344-.06-.116-.082-.127-.265-.125-.163.003-.21.021-.25.1-.087.17-.114.157-.083-.042.027-.173.02-.2-.053-.224a.132.132 0 0 0-.042-.006zm-6.03.035a.13.13 0 0 0-.03 0c-.128.016-.853.393-1.023.533a.934.934 0 0 0-.195.235c-.136.255-.328.453-.503.53-.036.364-.085.74-.153 1.128-.363.575 1.66 1.018 3.827 1.214a.457.457 0 0 0-.022-.128c-.052-.1-.266-.209-.348-.178-.037.013-.095 0-.13-.028-.083-.07-.075-.78.014-1.094.066-.238.053-.473-.03-.54a.641.641 0 0 0-.212-.065.58.58 0 0 1-.447-.43c-.15-.588-.173-.636-.424-.913-.173-.189-.253-.256-.324-.264zm7.528 2.994c-.144-.002-.344.103-.403.21-.04.072-.073.083-.181.06-.174-.04-.284-.039-.63.004-.232.03-.34.07-.577.225-.297.193-.341.21-.675.251l-.005.001c1.685-.027 3.82-.15 4.615-.38.09-.025.088-.117.067-.234-.203.05-.431.1-.735.158l-.797.151-.13-.156c-.136-.166-.37-.288-.55-.29Z" style="stroke-width:.110591"/></symbol>
        <symbol id="poisoned" viewBox="0 0 33.867 33.867"><path d="M10.542 33.568c-1.35-.487-2.148-1.227-2.68-2.483-.662-1.564-.63-14.18.042-16.443.65-2.187 2.056-4.07 3.918-5.246l1.518-.96V6.252c.001-1.967-.08-2.24-.822-2.724-1.076-.705-1.123-2.253-.092-2.976 1.05-.735 8.024-.735 9.074 0 1.032.723.984 2.27-.09 2.976-.743.485-.825.757-.824 2.724v2.185l1.52.959c1.892 1.196 3.284 3.087 3.945 5.358.406 1.398.487 3.196.403 8.97-.148 10.113-.072 10.03-9.16 10.134-3.487.04-6.154-.074-6.752-.29zm8.71-4.85c.205-.384.57-.569.93-.475.816.214 1.862-1.028 1.94-2.302.035-.572.2-1.837.363-2.81.41-2.439.195-3.2-1.37-4.826-2.446-2.543-5.486-2.644-8.115-.268-1.58 1.426-1.964 2.666-1.563 5.054.167.995.332 2.278.367 2.85.078 1.274 1.125 2.516 1.94 2.302.361-.094.725.091.93.474.273.51.704.63 2.29.63 1.584 0 2.015-.12 2.288-.63zm-2.942-1.43c.006-.52.57-1.432.76-1.225.077.085.243.488.368.896.186.603.101.74-.453.74-.374 0-.678-.185-.675-.41zm-2.902-1.3c-.218-.218-.396-.732-.396-1.142 0-1.386 2.328-1.906 3.09-.69.281.448.218.706-.296 1.2-.877.843-1.914 1.116-2.398.632zm5.563-.022c-1.163-.598-1.57-1.39-1.043-2.026.854-1.028 2.987-.38 2.987.906 0 .688-.543 1.543-.972 1.532-.1-.002-.537-.188-.972-.412z" style="stroke-width:.329293"/></symbol>
        <symbol id="prone" viewBox="0 0 33.867 33.867"><path d="M13.649 0v9.294l1.738 3.16 1.739 3.16-1.373 1.377c-.755.758-1.409 1.377-1.452 1.377-.044 0-.695-.775-1.448-1.722-.752-.946-1.49-1.75-1.64-1.786-.58-.138-7.523-1.377-7.55-1.347-.059.064-.717 3.446-.678 3.485.022.022 1.454.352 3.184.734l3.144.695 4.96 6.38 4.962 6.38h7.9l-.036-1.752-.037-1.75-2.86-.037-2.86-.035-.914-1.22a45.072 45.072 0 0 1-1.018-1.394c-.072-.12.552-.84 2.003-2.315 2.213-2.249 2.76-3.005 3.206-4.43.233-.745.263-1.214.263-4.172v-3.335l3.576-2.54 3.577-2.542-.448-.553a428.3 428.3 0 0 1-1.416-1.77c-.553-.695-1.032-1.18-1.114-1.132a791.21 791.21 0 0 0-4.275 2.837l-4.129 2.751v4.247l-1.386-2.091-1.386-2.092-.002-3.93L17.877 0ZM8.134 20.591c.005-.016-.26.182-1.85 1.373-3.184 2.387-3.023 2.256-3.419 2.781-.83 1.104-1.178 2.514-.978 3.965.138.998.514 1.899 1.151 2.754.442.593.85.99 1.413 1.378 1.52 1.045 3.359 1.308 4.976.709.617-.23.444-.112 3.647-2.487 2.763-2.047 1.704-1.262 1.733-1.344.021-.061-.047-.66-.222-1.95-.238-1.755-.257-1.866-.332-1.946a.359.359 0 0 0-.182-.104l-.103-.02-1.407 1.04c-2.892 2.144-2.727 2.008-2.686 2.213.01.052.049.135.086.185.211.286.317.706.278 1.098-.046.441-.225.755-.585 1.024l-.18.135-.623-.838c-.688-.924-.703-.95-.67-1.198.031-.228.029-.225 1.597-1.569.81-.694 1.501-1.3 1.534-1.346.118-.162.102-.2-.388-.857-.49-.656-.52-.683-.71-.617-.053.02-.831.508-1.729 1.086-1.736 1.119-1.733 1.116-1.96 1.08-.246-.038-.268-.06-.957-.983l-.623-.836.18-.134c.361-.269.713-.35 1.149-.267.387.073.759.295.972.58.037.049.106.11.153.134.184.098.007.218 2.889-1.94l1.398-1.052.011-.11c.009-.085-.006-.133-.063-.211-.068-.092-.243-.177-1.78-.872-1.31-.592-1.727-.769-1.795-.76-.03.004.071-.084.075-.094z" style="stroke-width:.132144"/></symbol>
        <symbol id="restrained" viewBox="0 0 33.867 33.867"><path d="M15.951 0a9.568 9.568 0 0 0-.53.02c-1.703.107-2.56.447-3.016 1.195-.191.313-.348.627-.349.698 0 .195.103.169 1.348-.338.937-.382 1.401-.465 2.525-.453.757.008 1.59.059 1.85.112.526.108.552.072.297-.406-.308-.575-.963-.835-2.125-.828zm5.273.544a1.42 1.42 0 0 0-.275.023c-.564.11-1.467.696-1.312.852.049.048.675.16 1.39.25 1.388.172 2.395.574 3.508 1.4.811.602.948.631.948.204 0-.518-.734-1.454-1.469-1.875-.864-.495-2.074-.855-2.79-.854Zm-3.848.978c-.722.002-1.235.098-1.308.286-.244.638.167.832 2.03.96.985.066 2.023.196 2.307.287.674.218.954.172 1.183-.192.295-.469-.158-.762-1.65-1.066a13.318 13.318 0 0 0-2.562-.275Zm-3.466.348c-.575 0-3.452 1.026-4.135 1.475-.673.442-.788.724-.439 1.073.28.28.307.275 1.454-.287.961-.471 2.2-.91 3.183-1.125.815-.18.761-1.135-.063-1.135Zm-4.45.172c-.653 0-1 .13-1.817.675-1.64 1.096-2.16 1.857-1.991 2.92.06.375.161.31 1.213-.775.706-.728 1.446-1.308 1.922-1.505a713.41 713.41 0 0 1 1.435-.593c.604-.248.634-.291.354-.497-.17-.123-.67-.225-1.115-.225Zm8.134.861a3.26 3.26 0 0 0-.965.168c-.242.092-1.08.21-1.86.26-2.138.139-2.404.28-1.551.831.66.426 3.29.268 4.125-.248.311-.193.566-.376.566-.408 0-.032.047-.18.104-.33.081-.212-.012-.273-.42-.273zm5.831.086a.444.444 0 0 0-.287.104c-.457.379-.224.664 1.44 1.762.924.61 1.826 1.271 2.007 1.471.436.485 1.076.477 1.233-.014.139-.44-.459-1.017-2.38-2.298-1.097-.731-1.664-1.032-2.013-1.025Zm-3.844.187c-.105.003-.18.025-.21.073-.044.07.096.39.31.709.297.442.718.713 1.762 1.134 1.379.556 1.946.593 2.737.178.328-.172.328-.177 0-.417a2.289 2.289 0 0 0-.763-.328c-.87-.171-2.163-.635-2.582-.924-.366-.254-.94-.433-1.254-.425Zm7.85 1.008a1.917 1.917 0 0 0-.477.067l-.501.134.76.507c.956.636 2.573 2.265 2.573 2.59 0 .136.174.515.387.844.455.702.57.737.71.215.285-1.068-.02-1.805-1.316-3.175-.762-.806-1.448-1.189-2.135-1.182ZM11.35 4.22c-.27.003-.803.32-1.449.889-.405.356-1.035.8-1.4.984-.77.39-1.436.931-1.436 1.165 0 .093.393.13.904.086.71-.062 1.124-.234 1.936-.803 1.008-.707 1.636-1.521 1.636-2.125 0-.134-.069-.198-.191-.196zm-3.62.796c-.532-.043-1.595.846-2.792 2.409-.92 1.202-1.119 1.643-.857 1.905.286.286.762.056 1.277-.617.307-.402 1.057-1.245 1.666-1.872.729-.75 1.086-1.25 1.046-1.461-.045-.231-.163-.35-.34-.364Zm17.754.806v.767c0 .684.103.887.945 1.855.52.598 1.159 1.18 1.42 1.293.562.246 1.25.286 1.25.073 0-.083-.51-.683-1.131-1.334-.622-.651-1.237-1.385-1.368-1.631a2.392 2.392 0 0 0-.677-.736Zm-8.113.808c-.029 0-.394.206-.812.458-.58.35-.707.477-.535.542.198.077.223.358.223 2.542 0 2.099-.031 2.49-.219 2.697-.12.133-.269.242-.33.242-.062 0-.112-1.13-.112-2.513 0-3.126.047-3.1-1.964-1.09-1.567 1.564-2.588 2.963-2.483 3.398.253 1.045.255 1.081.05.8-.05 3.406-.147 3.344-.1 5.37v1.202c0 .994-.05 1.28-.282 1.655-.16.26-.231.505-.165.57.064.063 1.277.828 2.695 1.701 1.418.872 2.617 1.59 2.663 1.595.046.006.122-1.553.168-3.463.047-1.91.12-3.933.161-4.497l.077-1.024h-1.208c-.905 0-1.293-.056-1.544-.22-.337-.221-1.107-1.423-1.11-1.732 0-.124.43-.165 1.719-.165 1.567 0 1.72-.021 1.72-.238 0-.131.07-.31.155-.394.12-.12.277.047.674.71.286.477.55.835.59.795.04-.04.291-.429.56-.865.373-.608.524-.758.643-.639a.64.64 0 0 1 .155.393c0 .217.152.238 1.728.238h1.729l-.092.298c-.169.547-.433.97-.868 1.397-.423.413-.455.422-1.678.422H18.33l.08 1.355c.043.745.117 2.77.164 4.497.047 1.728.108 3.14.135 3.14.074 0 5.258-3.174 5.382-3.296.06-.059-.015-.308-.165-.554-.223-.366-.272-.669-.273-1.66v-1.212c-.227-2.36-.204-2.208-.21-5.478.043-.2.111-.5.152-.668.114-.471-.85-1.809-2.475-3.432-2.011-2.01-1.965-2.035-1.965 1.091 0 1.382-.04 2.513-.088 2.513-.049 0-.198-.099-.33-.218-.218-.199-.242-.465-.242-2.698 0-2.206.024-2.488.223-2.565.171-.065.045-.192-.535-.542-.418-.252-.784-.458-.813-.458zm-12.95.293c-.504.017-1.49.493-1.807.943-1.172 1.661-1.559 3.442-.94 4.326l.29.413.214-.59c.117-.326.219-.796.226-1.047.02-.674.905-2.243 1.733-3.07.508-.508.67-.78.543-.907-.051-.051-.142-.072-.258-.068zm24.536.659a.445.445 0 0 0-.095.003c-.575.082-.52.538.203 1.657.37.572.851 1.49 1.07 2.041.218.55.474 1.102.569 1.225.094.123.333.2.531.172.551-.079.425-.919-.393-2.608-.807-1.667-1.403-2.457-1.885-2.49ZM6.23 8.25c-.203-.016-.55.432-.73.978-.212.641-.62 1.419-1.285 2.453-.214.332-.442.785-.508 1.007-.108.363-.08.391.283.276.793-.25 1.174-.642 1.88-1.927.598-1.09.7-1.413.624-1.979-.05-.372-.134-.72-.187-.773a.118.118 0 0 0-.077-.035Zm25.22 1.958c-.108-.006-.091.084-.023.311.064.213.221.581.35.818.714 1.317.824 1.714.898 3.228.042.875.14 1.592.216 1.592.262 0 .844-.895.95-1.457.065-.348-.037-1.09-.268-1.943-.394-1.461-.854-2.093-1.777-2.442-.17-.065-.28-.103-.346-.107zm-28.09.443c-.238-.001-.474.218-.662.643-.667 1.509-1.186 4.418-.849 4.755.067.067.28.1.473.072.294-.042.397-.281.626-1.459.15-.774.447-1.883.658-2.463.304-.832.341-1.106.178-1.302-.136-.164-.28-.245-.424-.246Zm26.295.277-.279.54c-.335.648-.343 1.187-.038 2.463.286 1.196.491 1.583 1.091 2.057l.475.376.052-.426c.03-.234-.108-.904-.305-1.488s-.406-1.427-.464-1.872c-.058-.446-.201-1-.318-1.23zM1.37 13.969c-.096.006-.236.075-.426.2-.65.426-.938 1.272-.938 2.763 0 1.45.278 2.31.881 2.732.22.154.461.28.535.28.224 0 .15-.813-.14-1.537-.305-.76-.262-2.117.11-3.497.18-.667.188-.955-.022-.941zm30.408.14a.475.475 0 0 0-.222.086c-.252.159-.286.513-.263 2.75.014 1.414.03 2.627.034 2.698.005.071.2.13.435.13.586 0 .694-.487.68-3.061-.01-1.751-.061-2.165-.304-2.407-.139-.139-.246-.201-.36-.195zm-28.343.169a.1.1 0 0 0-.084.027c-.078.079-.13 2.944-.086 4.837.014.583.279.542.773-.12.425-.568.59-2.675.284-3.604-.175-.529-.653-1.118-.887-1.14Zm27.47 3.189-.627.552c-.523.46-.674.756-.904 1.777-.347 1.535-.346 1.924.003 2.6l.28.54.213-.42c.117-.23.26-.784.318-1.23.058-.446.267-1.288.463-1.873.197-.584.335-1.26.306-1.504l-.053-.442zm-28.548.268a.656.656 0 0 0-.168.005c-.296.042-.387.187-.428.685-.057.692.472 3.12.904 4.145.206.489.372.645.682.645.604 0 .642-.35.182-1.673-.228-.653-.466-1.648-.529-2.21-.128-1.136-.284-1.556-.644-1.597Zm30.543.015c-.15.02-.19.374-.173 1.102.032 1.405-.21 2.384-.89 3.587-.275.49-.502.982-.502 1.094 0 .301 1.224-.244 1.575-.702.416-.542.92-2.333.92-3.261 0-.545-.114-.959-.354-1.28-.275-.37-.46-.556-.576-.54zM3.72 20.84a.054.054 0 0 0-.031.01c-.112.113.285.963 1.04 2.23.322.541.639 1.161.703 1.377.065.216.228.567.362.78.332.525.532.487.667-.129.157-.716-.008-1.286-.744-2.566-.452-.787-.82-1.199-1.287-1.44-.314-.164-.609-.27-.71-.262Zm27.43.32a.554.554 0 0 0-.28.09c-.134.087-.417.584-.63 1.107-.343.848-1.16 2.352-1.692 3.115-.107.153-.146.404-.086.56.173.45.739.326 1.25-.279.58-.682 1.967-3.555 1.967-4.07a.509.509 0 0 0-.53-.523zm-29.192.084-.317.482c-.52.795-.41 1.775.364 3.226.565 1.059.809 1.34 1.442 1.662 1.442.732 1.702.39.58-.764-.845-.869-1.598-2.25-1.623-2.98-.008-.237-.112-.7-.23-1.028Zm26.82 2.659c-.741 0-1.409.427-2.324 1.485-.867 1.003-.972 1.208-.972 1.89v.764l.439-.288a2.41 2.41 0 0 0 .688-.768c.136-.264.752-.984 1.368-1.6 1.167-1.166 1.337-1.483.801-1.483zm-24.253.548a.403.403 0 0 0-.104.002c-.683.097-.523.696.545 2.042.997 1.256 1.429 1.69 2.246 2.261.224.157.514.244.646.193.483-.185.235-.844-.639-1.696A21.83 21.83 0 0 1 5.567 25.4c-.509-.655-.793-.92-1.042-.949Zm26.133.46c-.02-.002-.04.007-.058.03-.411.51-.815 1.219-.815 1.427 0 .292-1.663 2.183-1.92 2.183-.09 0-.43.212-.755.471-.505.403-.548.49-.292.59.773.307 1.584.03 2.516-.857.99-.943 1.656-2.062 1.654-2.777-.003-.502-.187-1.058-.33-1.068zM7.82 26.485c-.416 0-.757.064-.757.142 0 .21.708.797 1.223 1.015.246.104.889.549 1.428.988.539.439 1.15.863 1.36.941.504.19.568-.047.219-.82-.425-.943-2.454-2.266-3.473-2.266zm19.607.699c-.282 0-.696.224-1.193.662-.42.37-1.309.996-1.974 1.392-1.29.765-1.526 1.058-1.186 1.467.117.14.303.255.414.255.283 0 2.543-1.412 3.449-2.154.811-.665 1-.97.845-1.374a.355.355 0 0 0-.355-.248zm-21.603.806c-.074-.008-.114.06-.16.183-.176.478.095 1.366.578 1.893.215.235.848.726 1.407 1.091 1.081.706 2.137.877 2.897.47.362-.193.362-.194-.054-.426-.229-.129-.717-.318-1.085-.422-.959-.27-1.817-.888-2.774-1.997-.475-.55-.688-.778-.81-.792Zm17.56.391c-1.415-.062-3.694.983-3.972 2.046-.08.306-.029.334.45.244.298-.056.658-.201.8-.323.303-.26 1.554-.737 2.41-.92.331-.07.79-.23 1.02-.353.402-.216.406-.235.097-.46-.199-.146-.48-.22-.805-.234Zm-13.717.902c-.1.002-.177.043-.264.115-.15.126-.274.333-.274.462 0 .47 1.57 1.286 3.614 1.878 1.09.315 1.665.308 1.792-.025.178-.463-.2-.719-1.765-1.194-.819-.249-1.85-.654-2.29-.9-.425-.238-.649-.34-.813-.336Zm5.283.16c-.8-.02-1.542.11-1.882.417-.294.266-.303.324-.072.453.145.082.93.183 1.744.226.813.043 1.607.153 1.764.245.347.202 1.576.231 1.576.037 0-.077-.22-.352-.49-.61-.488-.467-1.612-.742-2.64-.768zm10.408.876c-.23.028-.9.448-1.425.91-.536.47-1.817.878-3.236 1.029-1.211.13-1.305.335-.37.811.327.166.787.3 1.023.297.799-.006 2.797-.83 3.377-1.392.518-.502.913-1.429.7-1.642-.013-.013-.037-.017-.07-.013zm-4.26.386c-.204-.002-.512.053-1.043.164a18.15 18.15 0 0 1-2.473.3c-1.35.053-1.743.291-1.504.913.106.277.288.296 1.877.198 2.876-.178 4.244-.716 3.56-1.4a.515.515 0 0 0-.418-.175zm-9.012 1.208c-.031.026.067.287.218.58.334.645.948 1.068 1.789 1.232 1.145.223 2.775.174 3.302-.098.418-.217.857-.722.857-.988 0-.036-.577.002-1.282.085-1.377.16-2.289.037-3.882-.526-.52-.183-.972-.312-1.003-.285z" style="stroke:none;stroke-width:.177288;stroke-miterlimit:4;stroke-dasharray:.177288,.177288;stroke-dashoffset:0;"/></symbol>
        <symbol id="stunned" viewBox="0 0 33.867 33.867"><path d="M23.895 32.721c-.935.426-5.034-7.298-6.053-7.188-1.018.112-3.41 8.544-4.412 8.33-1.002-.214.15-8.91-.738-9.429-.888-.518-7.702 4.876-8.39 4.104-.686-.772 5.279-7.119 4.86-8.069-.42-.95-9.052-.654-9.161-1.689-.11-1.034 8.389-2.608 8.6-3.626.21-1.018-6.945-5.934-6.435-6.837.51-.902 8.296 2.9 9.056 2.201.76-.698-2.185-8.947-1.25-9.373.935-.424 5.034 7.299 6.052 7.188 1.019-.111 3.41-8.543 4.413-8.33 1.002.215-.151 8.911.737 9.43.888.518 7.702-4.876 8.39-4.104.686.772-5.28 7.12-4.86 8.068.419.95 9.052.655 9.162 1.69.109 1.034-8.39 2.607-8.6 3.626-.21 1.018 6.944 5.935 6.434 6.837-.51.902-8.295-2.9-9.055-2.202-.76.698 2.184 8.948 1.25 9.373z" style="font-variation-settings:normal;stroke:none;stroke-width:.534578;stroke-linecap:round;stroke-linejoin:round;stroke-miterlimit:4;stroke-dasharray:none;stroke-dashoffset:0;"/></symbol>
        <symbol id="unconscious" viewBox="0 0 33.867 33.867"><path d="M16.933 0c-2.027 0-3.564.244-5.339.848-4.785 1.627-8.37 5.237-9.7 9.768-.508 1.73-.484 1.158-.511 12.08-.024 9.42-.017 5.81.118 6.008.099.145 1.526.976 4.644 2.702 4.244 2.35 4.52 2.49 4.818 2.457a.986.986 0 0 0 .527-.23l.211-.193c6.85-.322 7.49.195 10.463 0l.223.204c.172.158.302.205.568.207.311.002.786-.243 4.83-2.482 3.442-1.908 4.513-2.535 4.605-2.7.106-.187.118 2.717.094-5.992-.029-10.9-.006-10.331-.513-12.06-1.065-3.63-3.591-6.7-7.104-8.636C22.448.648 19.854 0 16.933 0ZM7.767 11.812l2.949 2.95 2.95-2.95 1.503 1.504-2.949 2.949 2.95 2.95-1.504 1.503-2.95-2.95-2.95 2.95-1.503-1.503 2.95-2.95-2.95-2.95Zm12.434 0 2.949 2.95 2.95-2.95 1.503 1.504-2.949 2.949 2.95 2.95-1.504 1.503-2.95-2.95-2.95 2.95-1.503-1.503 2.95-2.95-2.95-2.95z" style="stroke-width:1.15318"/></symbol>
        <symbol id="exhausted-I" viewBox="0 0 33.867 33.867"><path d="M16.653 17.702a18.685 18.685 0 0 0-5.339.844 19.408 19.408 0 0 0-6.503 3.528c-1.736 1.445-3.04 2.977-4.299 5.052L0 27.968l.511.842c1.26 2.074 2.564 3.606 4.302 5.05a19.114 19.114 0 0 0 10.997 4.347c.49.028.906.055.926.06.149.041 2.447-.149 3.133-.258a19.132 19.132 0 0 0 12.576-7.794c.22-.31.63-.94.91-1.405l.511-.842-.512-.843c-2.042-3.365-4.572-5.723-7.969-7.431a18.954 18.954 0 0 0-8.732-1.992zm12.893 11.203a17.168 17.168 0 0 1-1.52 1.678c-.9.876-1.29 1.192-2.255 1.837-.99.66-1.873 1.137-1.658.894.808-.91 1.53-2.364 1.879-3.747 1.187-.19 2.37-.41 3.554-.662zm-25.187.05c1.302.314 2.604.57 3.905.775.372 1.432 1.06 2.772 1.917 3.673.127.136.219.26.204.277-.054.052-1.468-.714-2.177-1.179a17.086 17.086 0 0 1-3.847-3.546Zm19.107.967a6.814 6.814 0 0 1-6.533 4.878 6.814 6.814 0 0 1-6.502-4.777c4.358.494 8.707.419 13.035-.101z" style="stroke-width:1.36904" transform="translate(0 -6.185)"/><g style="font-style:normal;font-weight:400;font-size:13.3585px;line-height:1.25;font-family:sans-serif;"><path d="M18.828 111.348v.241h-3.79v-.241h.314q.547 0 .795-.32.157-.208.157-1.004v-5.714q0-.672-.085-.887-.065-.163-.267-.28-.287-.157-.6-.157h-.314v-.242h3.79v.242h-.32q-.54 0-.789.32-.163.208-.163 1.004v5.714q0 .672.085.887.065.163.274.28.28.157.594.157z" aria-label="I" style="font-style:normal;font-variant:normal;font-weight:400;font-stretch:normal;font-family:ol;-inkscape-font-specification:ol;stroke-width:.333963" transform="translate(0 -100.965)"/></g></symbol>
        <symbol id="exhausted-II" viewBox="0 0 33.867 33.867"><g style="font-style:normal;font-weight:400;font-size:13.3585px;line-height:1.25;font-family:sans-serif;"><path d="M23.525 110.918a13.648 13.648 0 0 0-3.9.617 14.177 14.177 0 0 0-4.75 2.577c-1.268 1.055-2.22 2.174-3.14 3.69l-.374.615.373.615c.92 1.515 1.873 2.634 3.142 3.688a13.962 13.962 0 0 0 8.033 3.176c.358.02.662.04.676.044.109.03 1.788-.109 2.289-.189a13.975 13.975 0 0 0 9.186-5.693c.16-.226.46-.687.665-1.026l.373-.615-.374-.616c-1.492-2.458-3.34-4.18-5.821-5.428a13.845 13.845 0 0 0-6.378-1.455zm9.417 8.183c-.318.405-.693.82-1.11 1.226-.658.64-.942.871-1.647 1.342-.723.482-1.368.83-1.211.653.59-.665 1.117-1.727 1.372-2.737.867-.139 1.732-.3 2.596-.484zm-18.397.037c.951.229 1.902.416 2.852.566.272 1.046.774 2.025 1.4 2.683.093.099.16.19.149.202-.039.038-1.072-.521-1.59-.861a12.48 12.48 0 0 1-2.81-2.59zm13.956.706a4.977 4.977 0 0 1-4.772 3.563 4.977 4.977 0 0 1-4.749-3.489c3.183.361 6.36.306 9.521-.074z" style="stroke-width:1" transform="translate(-15.553 -140.335) scale(1.36904)"/><g style="font-style:normal;font-weight:400;font-size:13.3585px;line-height:1.25;font-family:sans-serif;"><path d="M50.47 111.348v.241h-3.79v-.241h.314q.548 0 .796-.32.156-.208.156-1.004v-5.714q0-.672-.084-.887-.066-.163-.268-.28-.287-.157-.6-.157h-.313v-.242h3.79v.242h-.32q-.541 0-.79.32-.162.208-.162 1.004v5.714q0 .672.084.887.066.163.274.28.28.157.594.157zm4.45 0v.241h-3.79v-.241h.312q.548 0 .796-.32.157-.208.157-1.004v-5.714q0-.672-.085-.887-.065-.163-.267-.28-.287-.157-.6-.157h-.314v-.242h3.79v.242h-.32q-.54 0-.789.32-.163.208-.163 1.004v5.714q0 .672.085.887.065.163.274.28.28.157.593.157z" aria-label="II" style="font-style:normal;font-variant:normal;font-weight:400;font-stretch:normal;font-family:ol;-inkscape-font-specification:ol;stroke-width:.333963" transform="translate(-33.867 -100.965)"/></g></g></symbol>
        <symbol id="exhausted-III" viewBox="0 0 33.867 33.867"><g style="font-style:normal;font-weight:400;font-size:13.3585px;line-height:1.25;font-family:sans-serif;"><path d="M15.088 124.28a18.685 18.685 0 0 0-5.34.844 19.408 19.408 0 0 0-6.503 3.528c-1.735 1.444-3.039 2.976-4.298 5.052l-.512.842.51.842c1.26 2.074 2.565 3.606 4.302 5.049a19.115 19.115 0 0 0 10.997 4.348c.49.027.907.055.926.06.15.041 2.448-.15 3.134-.259a19.132 19.132 0 0 0 12.576-7.794c.219-.31.63-.94.91-1.404l.51-.842-.511-.844c-2.043-3.365-4.573-5.722-7.97-7.43a18.954 18.954 0 0 0-8.731-1.993zm12.892 11.202a17.168 17.168 0 0 1-1.52 1.679c-.9.876-1.29 1.192-2.255 1.837-.99.66-1.872 1.136-1.657.894.807-.91 1.529-2.364 1.878-3.747 1.187-.19 2.371-.41 3.554-.663zm-25.186.05a49.93 49.93 0 0 0 3.904.776c.373 1.432 1.06 2.772 1.917 3.673.127.135.219.26.204.276-.054.052-1.468-.713-2.177-1.178a17.086 17.086 0 0 1-3.847-3.546Zm19.106.967a6.814 6.814 0 0 1-6.533 4.878 6.814 6.814 0 0 1-6.502-4.776c4.358.494 8.708.419 13.035-.102z" style="stroke-width:1.36904" transform="translate(1.566 -112.763)"/><g style="font-style:normal;font-weight:400;font-size:13.3585px;line-height:1.25;font-family:sans-serif;"><path d="M82.113 111.348v.241h-3.79v-.241h.313q.548 0 .796-.32.157-.208.157-1.004v-5.714q0-.672-.085-.887-.065-.163-.267-.28-.287-.157-.6-.157h-.314v-.242h3.79v.242h-.32q-.541 0-.789.32-.163.208-.163 1.004v5.714q0 .672.085.887.065.163.274.28.28.157.593.157zm4.449 0v.241h-3.79v-.241h.313q.548 0 .796-.32.156-.208.156-1.004v-5.714q0-.672-.085-.887-.065-.163-.267-.28-.287-.157-.6-.157h-.313v-.242h3.79v.242h-.32q-.541 0-.79.32-.162.208-.162 1.004v5.714q0 .672.084.887.066.163.274.28.28.157.594.157zm4.448 0v.241h-3.79v-.241h.313q.548 0 .796-.32.157-.208.157-1.004v-5.714q0-.672-.085-.887-.065-.163-.268-.28-.287-.157-.6-.157h-.313v-.242h3.79v.242h-.32q-.541 0-.789.32-.163.208-.163 1.004v5.714q0 .672.085.887.065.163.274.28.28.157.593.157z" aria-label="III" style="font-style:normal;font-variant:normal;font-weight:400;font-stretch:normal;font-family:ol;-inkscape-font-specification:ol;stroke-width:.333963" transform="translate(-67.733 -100.965)"/></g></g></symbol>
        <symbol id="exhausted-IV" viewBox="0 0 33.867 33.867"><g style="font-style:normal;font-weight:400;font-size:13.3585px;line-height:1.25;font-family:sans-serif;"><path d="M24.843 121.874a18.685 18.685 0 0 0-5.34.845 19.408 19.408 0 0 0-6.502 3.528c-1.736 1.444-3.04 2.976-4.299 5.051l-.512.842.51.842c1.26 2.074 2.565 3.606 4.302 5.05A19.115 19.115 0 0 0 24 142.378c.49.028.906.055.925.06.15.042 2.448-.149 3.134-.258a19.132 19.132 0 0 0 12.576-7.794c.219-.31.63-.94.91-1.405l.511-.842-.512-.843c-2.043-3.365-4.573-5.723-7.97-7.431a18.954 18.954 0 0 0-8.73-1.992zm12.892 11.203a17.168 17.168 0 0 1-1.52 1.678c-.9.876-1.289 1.193-2.254 1.837-.99.66-1.873 1.137-1.658.894.808-.91 1.53-2.364 1.878-3.747 1.187-.19 2.371-.41 3.554-.662zm-25.186.05a49.93 49.93 0 0 0 3.905.775c.372 1.432 1.06 2.773 1.916 3.673.128.136.22.26.204.277-.053.052-1.467-.713-2.177-1.179a17.086 17.086 0 0 1-3.847-3.546zm19.106.967a6.814 6.814 0 0 1-6.533 4.878 6.814 6.814 0 0 1-6.501-4.777c4.357.495 8.707.42 13.034-.101z" style="stroke-width:1.36904" transform="translate(-8.19 -110.357)"/><g style="font-style:normal;font-weight:400;font-size:13.3585px;line-height:1.25;font-family:sans-serif;"><path d="M115.523 111.348v.241h-3.79v-.241h.314q.547 0 .795-.32.157-.208.157-1.004v-5.714q0-.672-.085-.887-.065-.163-.267-.28-.287-.157-.6-.157h-.314v-.242h3.79v.242h-.32q-.54 0-.789.32-.163.208-.163 1.004v5.714q0 .672.085.887.065.163.274.28.28.157.593.157zm9.81-8.604v.242q-.47.085-.71.3-.346.32-.614.978l-3.085 7.527h-.241l-3.314-7.625q-.254-.587-.359-.717-.163-.202-.404-.313-.235-.118-.64-.15v-.242h3.614v.242q-.613.058-.796.208-.182.15-.182.385 0 .326.3 1.018l2.25 5.185 2.087-5.12q.307-.757.307-1.05 0-.19-.19-.359-.188-.176-.638-.248-.033-.007-.111-.02v-.24z" aria-label="IV" style="font-style:normal;font-variant:normal;font-weight:400;font-stretch:normal;font-family:ol;-inkscape-font-specification:ol;stroke-width:.333963" transform="translate(-101.6 -100.965)"/></g></g></symbol>
        <symbol id="exhausted-V" viewBox="0 0 33.867 33.867"><g style="font-style:normal;font-weight:400;font-size:13.3585px;line-height:1.25;font-family:sans-serif;"><path d="M20.834 116.128a18.685 18.685 0 0 0-5.34.844 19.408 19.408 0 0 0-6.502 3.528c-1.736 1.445-3.04 2.977-4.299 5.052l-.512.842.51.842c1.26 2.074 2.565 3.606 4.302 5.049a19.115 19.115 0 0 0 10.998 4.348c.49.027.906.055.925.06.15.041 2.448-.149 3.134-.258a19.132 19.132 0 0 0 12.576-7.794c.219-.31.63-.94.91-1.405l.51-.842-.511-.843c-2.043-3.365-4.573-5.723-7.97-7.431a18.954 18.954 0 0 0-8.731-1.992zm12.892 11.202a17.169 17.169 0 0 1-1.52 1.679c-.9.876-1.289 1.192-2.254 1.837-.99.66-1.873 1.136-1.658.894.808-.91 1.53-2.364 1.878-3.747 1.187-.19 2.371-.41 3.554-.663zm-25.186.051a49.93 49.93 0 0 0 3.905.775c.372 1.432 1.06 2.772 1.916 3.673.127.136.22.26.204.277-.053.052-1.467-.714-2.177-1.179a17.086 17.086 0 0 1-3.847-3.546zm19.106.967a6.814 6.814 0 0 1-6.533 4.878 6.814 6.814 0 0 1-6.501-4.777c4.357.494 8.707.419 13.034-.101z" style="stroke-width:1.36904" transform="translate(-4.18 -104.611)"/><g style="font-style:normal;font-weight:400;font-size:13.3585px;line-height:1.25;font-family:sans-serif;"><path d="M157.083 102.744v.242q-.47.085-.71.3-.346.32-.614.978l-3.085 7.527h-.241l-3.314-7.625q-.254-.587-.359-.717-.163-.202-.404-.313-.235-.118-.64-.15v-.242h3.614v.242q-.613.058-.795.208-.183.15-.183.385 0 .326.3 1.018l2.25 5.185 2.088-5.12q.306-.757.306-1.05 0-.19-.19-.359-.188-.176-.638-.248-.033-.007-.111-.02v-.24z" aria-label="V" style="font-style:normal;font-variant:normal;font-weight:400;font-stretch:normal;font-family:ol;-inkscape-font-specification:ol;stroke-width:.333963" transform="translate(-135.467 -100.965)"/></g></g></symbol>
    </defs>
</svg>