<svg xmlns="http://www.w3.org/2000/svg" id="icon" width="100%" height="100%" viewBox="0 0 41.204 41.277"><path d="M17.464 55.535c-.829-.178-.866-.262-1.47-3.276-.264-1.321-.397-1.543-1.013-1.69-.39-.093-1.468-.51-2.395-.925l-1.687-.755-1.907 1.189c-1.05.654-2.03 1.189-2.18 1.189-.355 0-3.083-2.62-3.445-3.308-.23-.438-.06-.864.998-2.49l1.276-1.96-.55-1.08a21.926 21.926 0 0 1-1-2.397l-.448-1.32-2.19-.438c-1.206-.24-2.295-.6-2.421-.8-.284-.449-.305-4.477-.025-4.917.112-.177 1.2-.534 2.419-.794l2.214-.472.45-1.326c.248-.73.697-1.811 1-2.404l.55-1.078-1.291-1.942c-.923-1.387-1.227-2.06-1.067-2.36.487-.91 3.471-3.506 3.859-3.358.217.084 1.1.631 1.963 1.217.862.585 1.682 1.064 1.823 1.064.14 0 1.01-.357 1.933-.793.922-.437 1.889-.794 2.148-.794.565 0 .664-.233 1.217-2.861l.429-2.034 1.389-.14c.764-.076 2.01-.076 2.767 0l1.38.14.424 2.13c.513 2.57.56 2.653 1.599 2.861.453.09 1.418.463 2.144.828.726.365 1.436.663 1.578.663.141 0 .962-.479 1.825-1.064.862-.586 1.745-1.133 1.962-1.217.388-.148 3.372 2.449 3.86 3.358.16.3-.145.973-1.067 2.36l-1.291 1.942.55 1.078c.302.593.752 1.674 1 2.404l.45 1.326 2.21.471c1.216.26 2.277.537 2.357.617.259.258.306 4.72.054 5.095-.134.2-1.229.56-2.434.8l-2.19.438-.449 1.32c-.247.725-.694 1.8-.994 2.39l-.546 1.07 1.287 2.017 1.287 2.018-.793 1.01c-1.6 2.038-3.352 3.202-3.78 2.51-.074-.12-.841-.655-1.704-1.188l-1.57-.968-1.684.754c-.926.415-2.003.83-2.393.924-.616.147-.749.369-1.013 1.69-.603 3.014-.64 3.098-1.47 3.276-.427.092-1.312.167-1.967.167s-1.54-.075-1.968-.167zm6.247-7.938c5.39-1.872 8.963-6.901 8.943-12.592-.012-3.683-1.227-6.65-3.788-9.25-5.26-5.341-13.609-5.341-18.869 0-2.56 2.6-3.775 5.567-3.788 9.25-.022 6.394 4.296 11.673 10.71 13.094 1.576.35 5.088.09 6.792-.502zm-7.855-1.569c-3.917-1.354-6.93-4.643-7.77-8.478-.24-1.102-.227-1.143.322-.996.315.084.722.155.903.157.182.002.332.212.334.467.004.652 1.167 3.075 2.001 4.17.91 1.192 3.417 2.859 4.945 3.287 1.022.286 1.218.45 1.314 1.103.134.916-.131.953-2.049.29zm5.1-.269c.1-.677.285-.835 1.317-1.124 1.527-.428 4.035-2.095 4.944-3.288.835-1.094 1.998-3.517 2.002-4.17 0-.254.171-.462.378-.462.206 0 .581-.08.834-.177.404-.155.441-.042.31.943-.395 2.94-3.048 6.336-6.108 7.82-1.042.506-2.321.993-2.843 1.083-.932.16-.948.148-.834-.625zm-2.391-4.187c-.919-4.434-1.015-4.535-5.294-5.508-1.778-.405-3.4-.827-3.607-.938-.231-.124.837-.481 2.778-.927 5.356-1.232 5.225-1.105 6.205-6.017.341-1.71.694-3.109.785-3.109.09 0 .443 1.399.784 3.109.98 4.912.85 4.785 6.206 6.017 1.94.446 3.009.803 2.778.927-.207.111-1.83.533-3.608.938-4.278.973-4.375 1.074-5.293 5.508-.382 1.84-.772 3.345-.867 3.345-.096 0-.486-1.505-.867-3.345zm-2.857.176c-1.501-.794-3.815-3.668-3.337-4.146.328-.329 1.743.32 2.13.977.354.597 1.196 1.347 2.216 1.972.203.124.36 1.718.168 1.708-.127-.006-.657-.236-1.177-.511zm6.206-.313c.092-.46.434-1.022.76-1.25.765-.53 1.628-1.39 1.938-1.926.328-.568 1.963-.929 1.963-.434 0 .87-2.073 3.207-3.495 3.94-1.296.668-1.362.65-1.166-.33zM8.187 32.218c1.067-4.048 3.876-7 7.83-8.231 2.053-.64 2.021-.644 1.885.28-.098.674-.303.845-1.475 1.232-1.818.601-2.981 1.365-4.356 2.859-1.129 1.226-2.421 3.583-2.426 4.423-.001.238-.27.504-.598.592-1.182.317-1.231.25-.86-1.155zm21.497 1.14c-.254-.067-.464-.321-.465-.565-.005-.893-1.326-3.25-2.558-4.568-1.247-1.332-2.728-2.25-4.621-2.862-.775-.251-.987-.468-1.08-1.106-.113-.765-.087-.788.699-.618 2.672.575 5.403 2.222 6.858 4.135.999 1.313 1.984 3.415 2.182 4.658.185 1.152.11 1.22-1.015.925zm-17.396-.986c0-.458 1.09-2.214 1.762-2.84.812-.757 2.46-1.81 2.835-1.812.127 0 .162.35.076.778-.196.98-2.944 3.698-3.945 3.902-.4.081-.728.068-.728-.028zm13.077-.05c-.796-.33-3.322-3.125-3.464-3.83-.154-.772-.143-.781.604-.497 1.218.463 2.48 1.552 3.305 2.853.42.664.765 1.304.765 1.42 0 .224-.724.255-1.21.053z" style=";stroke-width:1" transform="translate(1.193 -14.425)"/></svg>