<svg xmlns="http://www.w3.org/2000/svg" id="icon" width="100%" height="100%" viewBox="0 0 34.925 42.795"><path d="M18.014 51.305c-.418-.437-.969-.794-1.224-.794-.794 0-.847-.542-.127-1.293.675-.705.69-.798.69-4.352 0-2.985-.07-3.66-.397-3.785-.56-.214-.493-.702.15-1.103.523-.327.544-.543.485-5.021l-.061-4.68-.75-.657c-.575-.505-.75-.891-.75-1.658 0-1.236-.435-1.29-.926-.114-.28.668-.66.996-1.56 1.34l-1.191.454-1.248 3.225c-.687 1.773-1.281 3.266-1.32 3.318-.188.245-3.456-2.573-4.519-3.896-2.183-2.717-3.788-6.814-3.788-9.669V21.48l1.587-.337c.873-.185 1.588-.44 1.588-.565 0-.126-.09-.234-.199-.24-.109-.008-.777-.531-1.484-1.165-1.28-1.148-1.285-1.156-.966-2.122.498-1.508 2.794-4.755 4.176-5.906 1.398-1.164 2.878-1.997 3.196-1.8.116.071.433 1.344.706 2.828l.495 2.698 2.16 1.394c1.987 1.282 2.173 1.477 2.328 2.445.092.579.347 1.121.567 1.205.319.123.4-.096.413-1.095.013-1.17.104-1.329 1.44-2.516l1.425-1.268 1.449 1.268c1.372 1.2 1.45 1.335 1.47 2.556.019 1.105.078 1.243.412.966.214-.178.468-.74.563-1.25.151-.803.453-1.105 2.258-2.25 2.259-1.434 2.143-1.24 2.864-4.82.232-1.154.548-2.14.703-2.191.543-.182 3.609 2.135 4.75 3.589 1.068 1.361 2.769 4.429 2.752 4.964-.004.128-.652.768-1.44 1.423-.787.655-1.439 1.264-1.447 1.353-.01.09.698.314 1.571.499l1.588.337v1.231c0 4.104-2.926 9.508-6.674 12.325l-1.628 1.224-1.313-3.31-1.312-3.311-1.4-.568c-1.126-.457-1.417-.703-1.482-1.251-.142-1.187-.743-1.031-.743.192 0 .937-.113 1.157-.792 1.544l-.792.45-.003 4.827c-.003 4.54.03 4.846.527 5.157.627.391.686.88.132 1.092-.325.126-.396.797-.396 3.75 0 3.429.03 3.64.66 4.464.676.887.642 1.216-.126 1.216-.24 0-.778.357-1.196.794-.418.436-.835.793-.926.793-.091 0-.508-.357-.926-.793zm-3.977-25.582c.923-.44.935-.466.935-2.105v-1.66l-1.148-.673c-.631-.37-1.218-.672-1.303-.672-.086 0 .149.705.52 1.566l.676 1.567-.677 1.212c-.76 1.36-.566 1.51.997.765zm10.86-.607c-.826-1.308-.826-1.558 0-3.189.366-.723.59-1.314.499-1.314-.092 0-.754.32-1.471.71l-1.304.71.077 1.603c.075 1.542.114 1.622 1.004 2.056.509.248 1.136.457 1.392.464.41.012.387-.113-.198-1.04zM6.466 45.763c-1.404-1.681-2.518-3.094-2.476-3.14.042-.044.77.1 1.615.32.847.222 1.586.355 1.644.298.057-.058-.445-1.56-1.118-3.337-.672-1.777-1.182-3.271-1.133-3.32.14-.14 7.592 9.36 7.592 9.68 0 .162-.26.23-.595.153-.327-.074-1.096-.241-1.708-.371l-1.113-.236-.078 1.505-.078 1.506zm22.264 1.613v-1.562l-1.654.347c-.91.19-1.728.265-1.819.166-.159-.175 7.443-9.926 7.608-9.76.045.044-.468 1.535-1.139 3.314-.671 1.778-1.168 3.285-1.105 3.349.064.063.808-.065 1.654-.286.847-.221 1.569-.365 1.605-.32.037.045-1.107 1.484-2.542 3.198L28.73 48.94z" style=";stroke-width:1" transform="translate(-1.478 -9.304)"/></svg>