<svg xmlns="http://www.w3.org/2000/svg" width="100%" height="100%" viewBox="0 0 39.553 36.006"><path d="M10.659 51.735c-3.333-1.371-5.629-3.326-6.911-5.885-1.211-2.416-1.678-5.701-1.253-8.806.452-3.302.663-3.448.68-.471.018 3.247.384 4.903 1.726 7.802 1.185 2.56 3.668 5.339 6.13 6.86 2.17 1.34 2.053 1.497-.372.5zm7.572.238c-4.915-1.07-9.193-4.5-11.613-9.309-1.416-2.815-1.849-4.78-1.854-8.425-.004-2.973.056-3.352.958-5.953.53-1.528 1.048-2.992 1.151-3.252.18-.452.137-.453-.914-.033-.606.242-1.16.382-1.233.31-.072-.073.018-.457.199-.855.218-.478.8-.931 1.713-1.336 1.198-.53 1.408-.735 1.556-1.527.224-1.194-.457-2.534-1.485-2.922-.664-.25-.771-.43-.771-1.291v-1l1.257.006c2.629.012 4.541 1.595 4.767 3.946l.12 1.24 2.153-.382c2.859-.505 12.228-.565 15.25-.096 1.238.192 2.369.345 2.514.34.146-.005.342-.618.437-1.362.274-2.157 2.19-3.674 4.657-3.686l1.124-.006v1.058c0 .735-.114 1.058-.373 1.058-.587 0-1.744 1.554-1.74 2.336.008 1.47.274 1.86 1.566 2.288.98.326 1.344.615 1.692 1.344.243.511.443.975.443 1.031 0 .056-.478-.085-1.062-.314-.583-.23-1.118-.36-1.188-.29-.07.07.275 1.322.766 2.782 1.288 3.823 1.584 5.882 1.226 8.503-.647 4.722-2.27 8.148-5.291 11.165-4.188 4.183-10.159 5.91-16.025 4.632zm3.317-9.013c0-3.9-.26-4.848-1.694-6.187l-.687-.642v10.113l.86.107c.473.058 1.009.125 1.19.149.251.032.331-.828.331-3.54zm3.374 3.173c.407-.127.486-9.91.08-9.91-.36 0-1.514 1.577-1.99 2.718-.291.696-.405 1.908-.405 4.297v3.328l.992-.165c.546-.09 1.14-.211 1.323-.268zm-6.813-5.627v-5.243l-.935-.446c-1.767-.843-1.711-.998-1.711 4.727v5.172l1.124.51c.619.281 1.214.513 1.323.517.11.003.199-2.354.199-5.237zm9.632 4.747 1.033-.456.025-5.213c.028-5.703.087-5.522-1.57-4.83l-.918.384v5.305c0 2.918.09 5.296.198 5.286.11-.011.664-.225 1.232-.476zM14.405 33.34V22.786l-1.383.307c-1.325.295-1.402.36-1.857 1.585-.695 1.872-1.476 5.052-1.785 7.266-.535 3.83.813 8.03 3.411 10.628.728.729 1.39 1.324 1.469 1.324.08 0 .145-4.75.145-10.555zm17.132 9.144c3.916-4.14 4.44-8.78 1.892-16.746-.724-2.266-.823-2.425-1.597-2.58a9.131 9.131 0 0 0-1.453-.165h-.629v10.451c0 5.748.102 10.451.227 10.451.124 0 .826-.635 1.56-1.41zM17.381 33.14l.728-.37V22.465l-.728.004a6.31 6.31 0 0 0-1.323.163c-.593.16-.595.178-.595 5.703v5.543l.595-.184c.328-.1.923-.35 1.323-.553zm11.515-4.91.071-5.436-.6-.16a6.333 6.333 0 0 0-1.329-.165l-.727-.004V32.99l.992.411c.546.226 1.111.378 1.257.337.162-.045.292-2.173.336-5.51zM20.8 30.152c.721-1.133.748-1.299.748-4.564V22.2h-2.38v4.928c0 5.493.027 5.545 1.632 3.024zm4.335-7.612c-.08-.207-.597-.34-1.33-.34h-1.198v3.052c0 3.431.295 4.475 1.667 5.893l.846.875.073-4.57c.04-2.513.014-4.723-.058-4.91zm8.376 28.53c2.619-1.768 4.472-3.855 5.786-6.512 1.253-2.535 1.809-4.989 1.858-8.202l.036-2.382.353 1.72c.711 3.466.316 7.563-.976 10.129-1.343 2.665-4.02 4.944-6.932 5.901-.754.248-1.55.513-1.769.588-.218.075.521-.483 1.644-1.241z" style=";stroke-width:1" transform="translate(-2.34 -16.38)"/></svg>