<svg xmlns="http://www.w3.org/2000/svg" id="icon" width="100%" height="100%" viewBox="0 0 39.639 45.013"><path d="M17.038 50.53c-.322-2.64-.653-5.245-.736-5.788-.11-.726-.638-1.55-1.998-3.112-1.299-1.494-1.774-2.223-1.6-2.453.138-.18 2.706-3.384 5.709-7.12l5.46-6.793-2.516-2.203c-1.384-1.211-2.677-2.202-2.874-2.202-.197 0-1.092.7-1.989 1.555l-1.63 1.556.726.76c.884.922.942.925 2.152.102l.967-.656.607.57c.334.314.607.69.607.838 0 .523-2.522 4.138-2.995 4.293-.326.106-1.014-.256-2.133-1.123-5.9-4.573-5.4-4.075-5.262-5.249.267-2.256.345-2.357 4.437-5.697 2.183-1.782 4.102-3.344 4.265-3.471.192-.151 2.005 1.055 5.16 3.43l4.862 3.664.074 3.022.074 3.023-2.72 3.067a13861.17 13861.17 0 0 1-5.446 6.136l-2.727 3.07 1.355 1.724 1.354 1.724-.596 5.822-.597 5.822-.702.245-.701.244zm-7.395 3.383c-2.817-.34-5.255-.662-5.418-.716-.163-.055 1.159-.257 2.938-.45 1.78-.192 3.235-.422 3.235-.51 0-.089-.585-.43-1.3-.757-5.934-2.722-9.823-9.488-8.82-15.345.443-2.585 2.352-6.274 4.357-8.417.889-.95 1.853-1.854 2.142-2.01.52-.277.52-.272-.009.478-2.314 3.283-3.555 8.525-2.967 12.542.362 2.476.775 3.005.78.998.003-1.673.489-3.62 1.297-5.202.62-1.213 2.449-3.343 3.227-3.76.384-.205.358-.06-.157.877-1.368 2.488-1.402 5.641-.089 8.227.79 1.556 2.719 3.316 4.535 4.14l1.638.742.492 4.062c.27 2.233.553 4.448.628 4.921.165 1.045.566 1.034-6.51.18zm10.809.481c0-.109.246-2.52.547-5.357.495-4.67.602-5.197 1.122-5.557 1.522-1.05 2.635-2.327 3.422-3.925.752-1.527.862-2.019.862-3.83v-2.08l.454 1.015c.701 1.571 1.053 3.641.957 5.64-.082 1.713-.06 1.797.37 1.407.251-.228.71-1.084 1.017-1.9.777-2.06.626-5.278-.36-7.689l-.698-1.705.916-1.117c.504-.615.916-1.247.916-1.404 0-.732.602-.096 1.99 2.102 1.888 2.993 2.519 4.64 2.702 7.056.186 2.439-.265 4.75-1.383 7.092-1.023 2.144-3.666 5.362-5.643 6.869-.753.575-1.37 1.125-1.37 1.223 0 .099 1.37.332 3.044.518 1.674.187 3.006.378 2.96.424-.085.085-10.871 1.413-11.494 1.416-.182 0-.331-.088-.331-.198zm14.988-8.491c2.189-4.606 2.244-10.555.141-15.193-.942-2.078-1.915-3.534-3.647-5.46l-1.277-1.422.917.472c2.65 1.364 5.354 4.032 6.632 6.544 2.538 4.992 1.945 10.497-1.613 14.956-1.723 2.16-2.148 2.197-1.153.103zM13.608 15.075c-.864-.92-1.177-2.317-.818-3.65l.299-1.107.469 1.048c.433.967 1.64 2.233 2.453 2.573.228.095.038.41-.576.951-.504.445-.989.81-1.078.81-.09 0-.426-.282-.749-.625z" style=";stroke-width:1" transform="translate(-.12 -10.318)"/></svg>