<svg xmlns="http://www.w3.org/2000/svg" id="icon" width="100%" height="100%" viewBox="0 0 35.383 43.427"><path d="M19.11 51.607c-.094-.51-.582-3.41-1.084-6.447-.501-3.037-.961-5.57-1.021-5.631-.12-.12-1.247 6.86-1.242 7.69.002.28-.046.458-.104.397-.059-.06-1.093-3.146-2.297-6.857-1.935-5.961-2.305-6.87-3.172-7.805-.54-.582-1.165-1.424-1.389-1.87-.376-.749-2.279-8.447-2.363-9.557-.02-.268.43-1.11.998-1.872l1.034-1.386h10.735v1.44c0 1.141-.133 1.596-.638 2.184-.62.722-.725.746-3.902.874L11.4 22.9l.846.463c.645.352 1.47.463 3.463.463h2.616l1.562 1.832c.86 1.008 1.59 1.805 1.622 1.773.032-.033-.342-1.125-.832-2.428l-.891-2.368 5.304-.072c2.917-.04 5.334-.04 5.37 0 .212.231-.675 7.644-1.01 8.443-.222.53-.819 1.423-1.326 1.985-.803.89-1.193 1.902-3.03 7.873l-2.107 6.852-.585-3.81c-.321-2.094-.656-3.987-.742-4.205-.087-.219-.658 2.58-1.269 6.217-.848 5.057-1.15 6.397-1.281 5.689zm.866-18.555c.02-.394.197-.399 2.036-.051 1.107.209 2.062.332 2.12.273.06-.06-1.033-.622-2.427-1.252l-2.534-1.145-2.378 1.166c-1.309.641-2.275 1.2-2.148 1.243.127.042 1.028-.09 2.002-.295.975-.204 1.815-.296 1.868-.204.052.092.175 1 .272 2.019.33 3.474.49 3.674.844 1.058.177-1.31.332-2.575.345-2.812zM6.77 48.51c-1.27-.464-2.382-2.195-2.38-3.703.002-2.797 3.079-4.606 5.709-3.358 2.55 1.21 2.67 5.12.205 6.745-.731.483-2.618.65-3.534.316zm-.787-2.308c-.378-.995-.34-1.474.119-1.474.518 0 1.296-1.213 1.102-1.718-.233-.606-.863-.478-1.474.298-.654.832-.702 1.942-.132 3.045.5.965.769.859.385-.15zm22.286 2.074c-2.618-1.336-2.553-5.586.104-6.854 4.169-1.99 7.617 3.286 4.22 6.459-.892.834-3.075 1.033-4.324.395zm4.555-1.948c.482-.93.515-1.861.1-2.773-.347-.76-1.198-1.135-1.62-.713-.405.405.203 1.636.897 1.817.553.145.58.723.091 1.987-.293.758.096.525.532-.318zm-29.68-6.617c-2.042-1.245-2.179-4.434-.243-5.702 2.428-1.591 5.456-.01 5.456 2.848 0 1.179-.109 1.427-1.027 2.346-.88.88-1.193 1.027-2.183 1.026-.679 0-1.505-.214-2.003-.518zm-.07-1.316c-.434-.811-.323-1.357.388-1.917.79-.62.963-2.167.227-2.022-.667.13-1.506 1.426-1.506 2.325 0 .86.558 2.126.936 2.126.126 0 .106-.23-.044-.512zm28.942 1.578c-.303-.122-.869-.6-1.257-1.061-.915-1.088-.988-3.015-.154-4.076 1.666-2.117 4.973-1.834 5.952.511.513 1.227.469 2.212-.143 3.216-.871 1.429-2.814 2.052-4.398 1.41zm3.865-1.741c.54-1.008.408-2.438-.292-3.183-.816-.869-1.303-.818-1.303.135 0 .51.225.951.662 1.294.711.56.822 1.106.387 1.917-.15.282-.17.512-.044.512s.391-.304.59-.675zM4.947 31.615c-.953-.802-1.294-2.156-.827-3.283.304-.733 1.284-1.596 1.814-1.596.133 0 .5 1.042.814 2.315.315 1.274.636 2.524.712 2.778.23.765-1.528.615-2.513-.214zm.196-1.437c-.283-.811-.253-.915.396-1.388.755-.55.938-1.26.324-1.26-.52 0-1.475 1.27-1.475 1.961 0 .562.75 1.875.954 1.67.06-.058-.03-.5-.199-.983zm25.621 1.916c-.062-.11 0-.972.14-1.918.138-.946.307-2.107.374-2.58.1-.71.238-.86.789-.86 1.415 0 2.484 1.258 2.484 2.924 0 1.213-1.476 2.632-2.736 2.632-.516 0-.988-.089-1.05-.198zm3.258-2.494c0-.99-.787-2.057-1.522-2.066-.576-.007-.357.76.349 1.223.68.445.7.634.226 2.122-.123.383-.038.354.395-.137.304-.344.552-.858.552-1.142zM20.263 15.502c0-5.588.032-5.99.463-5.866.255.073 1.327.383 2.382.69l1.918.558v4.741c0 5.417.148 5.094-2.49 5.414-.859.104-1.722.25-1.917.326-.291.111-.356-.95-.356-5.863zm5.821 1.91c0-3.667.035-3.948.463-3.777.255.1 1.267.485 2.25.852l1.785.669v2.61c0 2.49-.027 2.616-.595 2.743l-2.25.499-1.653.366zm-17.573-.431c-.079-.127-.07-1.183.02-2.348l.164-2.118 2.135-.761a146.1 146.1 0 0 0 2.344-.849c.116-.048.21 1.35.21 3.11v3.196H11.02c-1.302 0-2.43-.103-2.508-.23zm5.991-4.062.073-4.293 1.124-.191c.619-.106 1.63-.106 2.25 0l1.124.191.072 4.293.073 4.292h-4.789z" style=";stroke-width:1" transform="translate(-1.527 -8.355)"/></svg>