<svg xmlns="http://www.w3.org/2000/svg" id="icon" width="100%" height="100%" viewBox="0 0 45.238 40.934"><path d="M14.102 51.119c-2.837-1.746-5.264-3.278-5.391-3.403-.132-.13.01-.62.33-1.139.466-.753.563-1.324.563-3.313v-2.403l-1.212-1.005c-1.193-.99-4.415-4.594-4.253-4.757.046-.046.646.108 1.334.342.687.234 1.304.372 1.37.305.067-.067-.743-.645-1.8-1.286-1.823-1.107-1.978-1.279-3.05-3.389-.62-1.223-1.078-2.273-1.016-2.335.061-.061 1.013.515 2.115 1.281 1.101.766 2.051 1.34 2.111 1.277.06-.064-.999-1.116-2.352-2.338l-2.462-2.22-.298-1.748c-.483-2.827-.533-3.203-.424-3.203.057 0 1.245 1.248 2.64 2.774 1.394 1.526 2.535 2.678 2.535 2.559 0-.119-1.19-1.804-2.646-3.746l-2.646-3.53v-3.315c0-1.908.098-3.208.232-3.064.127.139 2.348 3.824 4.935 8.19 2.587 4.365 4.877 8.175 5.089 8.466.409.562.404.49-.101-1.6-.21-.872 1.832-3.67 4.966-6.8 4.023-4.02 3.93-4.072 3.93 2.182 0 2.765.1 5.027.223 5.027s.42-.217.661-.483c.375-.414.438-1.197.438-5.396 0-4.368-.05-4.93-.447-5.084-.343-.13-.09-.386 1.071-1.086.836-.503 1.567-.915 1.625-.915.058 0 .79.412 1.625.915 1.162.7 1.414.955 1.071 1.086-.398.153-.447.718-.447 5.13 0 4.467.048 5.001.484 5.396.266.24.564.437.661.437.098 0 .178-2.262.178-5.027 0-6.254-.094-6.202 3.93-2.183 3.25 3.248 5.178 5.923 4.949 6.867-.081.334-.218.935-.305 1.336-.086.4 2.16-3.116 4.99-7.813 2.831-4.697 5.223-8.616 5.317-8.709.093-.093.166 1.31.163 3.116l-.006 3.285-2.64 3.566c-1.452 1.96-2.64 3.661-2.64 3.778 0 .117 1.101-1.03 2.448-2.55 1.346-1.521 2.516-2.775 2.6-2.787.174-.025.076.997-.315 3.291-.268 1.568-.312 1.63-2.735 3.837-1.355 1.233-2.417 2.293-2.36 2.355.056.062 1.003-.515 2.102-1.283 1.1-.768 2.053-1.343 2.118-1.277.065.065-.39 1.118-1.01 2.341-1.07 2.11-1.226 2.282-3.05 3.389-1.056.64-1.866 1.22-1.8 1.286.067.067.684-.07 1.371-.305.688-.234 1.283-.393 1.322-.353.143.143-2.968 3.625-4.197 4.696L34.74 40.88v2.425c.001 1.982.101 2.588.547 3.32.3.492.449.99.33 1.107-.249.244-10.618 6.596-10.768 6.596-.054 0-.175-2.827-.269-6.283-.093-3.457-.241-7.505-.328-8.996l-.159-2.712h2.495c2.448 0 2.511-.016 3.358-.844.87-.851 1.398-1.7 1.735-2.794l.184-.596h-3.458c-3.153 0-3.457-.042-3.457-.476 0-.262-.14-.616-.31-.786-.237-.237-.54.063-1.287 1.278-.537.873-1.04 1.652-1.12 1.73-.078.08-.609-.636-1.18-1.589-.795-1.328-1.11-1.66-1.348-1.42-.171.17-.311.525-.311.787 0 .434-.304.476-3.44.476-2.577 0-3.439.083-3.437.331.005.618 1.544 3.021 2.218 3.463.502.329 1.28.44 3.09.44h2.417l-.154 2.05c-.084 1.128-.23 5.176-.323 8.996-.093 3.82-.244 6.938-.336 6.928-.092-.009-2.49-1.446-5.327-3.192z" style=";stroke-width:1" transform="translate(.45 -13.395)"/></svg>