<svg xmlns="http://www.w3.org/2000/svg" id="icon" width="100%" height="100%" viewBox="0 0 34.168 43.253"><path d="M20.567 52.765a61.786 61.786 0 0 1-.579-2.606c-.248-1.24-.563-1.863-1.467-2.897-1.4-1.6-2.879-4.554-3.412-6.814-.574-2.437-.516-6.565.128-9.083.29-1.139.484-2.116.428-2.172-.183-.183-1.988 2.461-2.509 3.676-1.224 2.856-1.3 5.23-.273 8.57.531 1.73 2.166 4.479 3.49 5.868 1.224 1.285.53 1.048-2.232-.763-4.276-2.804-8.227-7.12-9.733-10.634l-.53-1.236h1.975c1.086 0 1.975-.064 1.975-.141 0-.077-.24-.854-.534-1.725-.669-1.985-1.176-6.642-.934-8.577l.183-1.464h2.608c2.506 0 2.629.028 3.16.702.303.386.59.654.638.596.047-.06.916-1.714 1.93-3.679 1.658-3.215 5.783-10.054 6.063-10.054.416 0 6.657 10.61 7.426 12.624.239.624.523 1.134.632 1.134.11 0 .393-.297.632-.661.414-.632.55-.662 3.044-.662 3.039 0 2.933-.1 2.933 2.781 0 2.576-.455 5.744-1.08 7.529-.28.795-.507 1.475-.507 1.51 0 .035.905.1 2.012.142l2.012.077-1.072 2.07c-1.786 3.448-4.318 6.194-8.509 9.227-1.167.844-3.44 2.157-3.44 1.986 0-.07.484-.707 1.075-1.414 1.52-1.82 3.076-5.152 3.464-7.417.385-2.248.088-4.355-.919-6.515-.653-1.4-2.255-3.755-2.433-3.577-.054.054.14.988.43 2.075.674 2.517.732 7.082.12 9.386-.584 2.2-2.022 5.024-3.418 6.712-1.018 1.231-1.236 1.723-1.64 3.704-.255 1.256-.556 2.388-.669 2.516-.112.128-.323-.23-.468-.794zm1.243-8.699c.92-3.167 1.194-5.17 1.198-8.73.004-3.438-.016-3.573-1.91-13.23l-.207-1.058-.205 1.455c-.112.8-.563 3.24-1.001 5.424-1.26 6.273-1.109 11.244.498 16.37.359 1.144.75 1.978.87 1.851.12-.126.461-1.063.757-2.082zm-9.117 5.56c-4.348-.946-6.845-3.452-7.385-7.412l-.18-1.323.825 1.273c1.898 2.929 4.652 5.228 8.322 6.95 1.751.823 1.82.886.961.875-.51-.006-1.653-.17-2.543-.363zm15.642-.904c3.066-1.504 5.723-3.76 7.354-6.243l1.042-1.588-.18 1.439c-.229 1.832-1.264 4.029-2.316 4.914-1.755 1.476-5.337 2.757-7.752 2.77-.623.005-.229-.271 1.852-1.292zM7.972 19.791c.463-1.53 1.936-3.798 3.441-5.297 1.71-1.704 3.17-2.734 3.375-2.38.065.111-.465 1.214-1.178 2.45-.713 1.237-1.555 3.053-1.871 4.035l-.576 1.787H9.478c-1.625 0-1.68-.021-1.506-.595zm22.793.397c-.063-.11-.265-.675-.45-1.257-.374-1.179-2.057-4.573-2.909-5.864-.878-1.333-.171-1.311 1.596.049 2.154 1.657 4.177 4.43 4.871 6.675.177.572.121.595-1.405.595-.875 0-1.641-.09-1.703-.198z" style=";stroke-width:1" transform="translate(-3.878 -10.332)"/></svg>