<svg xmlns="http://www.w3.org/2000/svg" id="icon" width="100%" height="100%" viewBox="0 0 36.499 44.818"><path d="M21.378 53.151c-2.675-.719-4.793-1.969-6.906-4.075-2.29-2.282-3.228-3.885-3.966-6.771-.88-3.44-.614-6.123.914-9.24 1.105-2.253 2.842-4.21 7.129-8.028 3.89-3.466 5.51-5.514 6.246-7.893.633-2.05.693-4.873.147-6.963l-.38-1.455.652.793c1.739 2.116 2.33 7.606 1.182 10.98-.81 2.383-1.968 4.193-4.651 7.277-2.648 3.044-4.119 5.763-4.3 7.954l-.116 1.395 2.214-.501c1.217-.275 2.596-.576 3.064-.667.468-.092.974-.317 1.126-.5.152-.182.588-1.748.969-3.478.38-1.73.777-3.238.88-3.352.102-.113.508 1.315.902 3.175.394 1.86.86 3.518 1.037 3.685.176.167 1.511.563 2.967.88 1.455.318 2.854.636 3.108.707.866.243.568-1.83-.726-5.065-.136-.34.187-.15.902.529 1.584 1.505 2.864 4.265 3.17 6.834.135 1.14.298 2.123.36 2.186.239.238 1.03-2.743 1.165-4.39.177-2.16-.41-5.034-1.507-7.383l-.815-1.745 1.065 1.037c1.278 1.245 2.77 3.99 3.324 6.12.518 1.988.517 5.13 0 7.12-1.309 5.021-5.896 9.482-11.143 10.836-2.023.522-6.069.521-8.013-.002zm3.573-8.905c-.095-.619-.376-1.958-.625-2.977l-.453-1.852-2.295-.562c-1.262-.309-2.712-.64-3.222-.736l-.927-.174.274 1c.406 1.478.929 2.38 2.144 3.698C21.004 43.898 21.9 44.46 23.608 45c1.526.483 1.532.479 1.343-.754zm4.081.29c2.103-.91 4.1-3.277 4.724-5.602l.272-1.013-.976.165c-.538.09-2.047.427-3.355.748l-2.377.583-.445 1.924a66.997 66.997 0 0 0-.626 3.004l-.183 1.08.888-.187c.488-.102 1.423-.418 2.078-.701zm-21.024 2.6C4.1 43 3.35 37.703 5.943 32.537c.919-1.83 3.137-4.49 5.423-6.5 3.547-3.12 5.303-4.869 6.09-6.068.506-.773.713-.958.588-.529-.331 1.145-.828 1.923-2.62 4.101-5.32 6.47-7.208 9.469-7.954 12.633-.914 3.876-.156 8.82 1.784 11.643.808 1.175.19.837-1.246-.683zm23.967-19.01c-.379-1.745-.57-1.946-2.081-2.196-1.52-.25-1.63-.582-.267-.808 1.703-.282 1.93-.495 2.31-2.16l.35-1.537.33 1.44c.38 1.65.791 2.042 2.401 2.283 1.409.212 1.297.523-.272.758-1.427.214-1.794.615-2.161 2.367l-.285 1.355z" style=";stroke-width:1" transform="translate(-4.423 -8.726)"/></svg>